<svg width="8" height="13" viewBox="0 0 8 13" fill="none" xmlns="http://www.w3.org/2000/svg">
<path d="M7.44385 12.0215C7.54531 11.9203 7.6258 11.8 7.68072 11.6676C7.73565 11.5352 7.76392 11.3933 7.76392 11.2499C7.76392 11.1066 7.73565 10.9646 7.68072 10.8322C7.6258 10.6998 7.54531 10.5796 7.44385 10.4783L3.19735 6.23182L7.44385 1.98532C7.64849 1.78068 7.76345 1.50313 7.76345 1.21372C7.76345 0.92432 7.64849 0.646767 7.44385 0.442128C7.23921 0.237488 6.96166 0.122525 6.67225 0.122525C6.38285 0.122525 6.1053 0.237488 5.90066 0.442128L0.877093 5.4657C0.775633 5.56695 0.695138 5.68722 0.640217 5.81962C0.585295 5.95202 0.557026 6.09395 0.557026 6.23729C0.557026 6.38063 0.585295 6.52256 0.640217 6.65496C0.695138 6.78736 0.775633 6.90763 0.877093 7.00888L5.90066 12.0325C6.31656 12.4483 7.01701 12.4483 7.44385 12.0215Z" fill="#ED1C24"/>
</svg>
