<svg width="8" height="13" viewBox="0 0 8 13" fill="none" xmlns="http://www.w3.org/2000/svg">
<path d="M0.768555 0.444069C0.667094 0.545322 0.5866 0.665591 0.531678 0.797991C0.476756 0.930391 0.448486 1.07232 0.448486 1.21566C0.448486 1.359 0.476756 1.50093 0.531678 1.63334C0.5866 1.76574 0.667094 1.886 0.768555 1.98726L5.01505 6.23376L0.768555 10.4803C0.563915 10.6849 0.44895 10.9624 0.44895 11.2519C0.44895 11.5413 0.563915 11.8188 0.768555 12.0234C0.973194 12.2281 1.25074 12.3431 1.54015 12.3431C1.82955 12.3431 2.1071 12.2281 2.31174 12.0234L7.33531 6.99988C7.43677 6.89863 7.51726 6.77836 7.57219 6.64596C7.62711 6.51356 7.65538 6.37163 7.65538 6.22829C7.65538 6.08495 7.62711 5.94301 7.57219 5.81061C7.51726 5.67821 7.43677 5.55794 7.33531 5.45669L2.31174 0.433125C1.89585 0.0172301 1.19539 0.0172304 0.768555 0.444069Z" fill="#ED1C24"/>
</svg>
