<svg width="400" height="317" viewBox="0 0 400 317" fill="none" xmlns="http://www.w3.org/2000/svg">
<path d="M295.92 85.8769C296.164 85.8769 296.362 85.6788 296.362 85.4344C296.362 85.19 296.164 84.9919 295.92 84.9919C295.676 84.9919 295.478 85.19 295.478 85.4344C295.478 85.6788 295.676 85.8769 295.92 85.8769Z" fill="white"/>
<path d="M295.92 90.0835C296.164 90.0835 296.362 89.8854 296.362 89.6411C296.362 89.3967 296.164 89.1986 295.92 89.1986C295.676 89.1986 295.478 89.3967 295.478 89.6411C295.478 89.8854 295.676 90.0835 295.92 90.0835Z" fill="white"/>
<path d="M295.92 94.2912C296.164 94.2912 296.362 94.0931 296.362 93.8487C296.362 93.6044 296.164 93.4062 295.92 93.4062C295.676 93.4062 295.478 93.6044 295.478 93.8487C295.478 94.0931 295.676 94.2912 295.92 94.2912Z" fill="white"/>
<path d="M295.92 98.4979C296.164 98.4979 296.362 98.2998 296.362 98.0554C296.362 97.811 296.164 97.6129 295.92 97.6129C295.676 97.6129 295.478 97.811 295.478 98.0554C295.478 98.2998 295.676 98.4979 295.92 98.4979Z" fill="white"/>
<path d="M299.634 83.534C299.878 83.534 300.076 83.3359 300.076 83.0915C300.076 82.8471 299.878 82.649 299.634 82.649C299.39 82.649 299.192 82.8471 299.192 83.0915C299.192 83.3359 299.39 83.534 299.634 83.534Z" fill="white"/>
<path d="M299.634 87.7416C299.878 87.7416 300.076 87.5435 300.076 87.2992C300.076 87.0548 299.878 86.8567 299.634 86.8567C299.39 86.8567 299.192 87.0548 299.192 87.2992C299.192 87.5435 299.39 87.7416 299.634 87.7416Z" fill="white"/>
<path d="M299.634 91.9482C299.878 91.9482 300.076 91.7501 300.076 91.5057C300.076 91.2613 299.878 91.0632 299.634 91.0632C299.39 91.0632 299.192 91.2613 299.192 91.5057C299.192 91.7501 299.39 91.9482 299.634 91.9482Z" fill="white"/>
<path d="M299.634 96.1559C299.878 96.1559 300.076 95.9578 300.076 95.7135C300.076 95.4691 299.878 95.271 299.634 95.271C299.39 95.271 299.192 95.4691 299.192 95.7135C299.192 95.9578 299.39 96.1559 299.634 96.1559Z" fill="white"/>
<path d="M297.686 164.756C297.53 164.943 297.251 164.968 297.063 164.811C296.876 164.654 296.851 164.375 297.007 164.188C297.164 164 297.443 163.975 297.631 164.132C297.819 164.289 297.843 164.568 297.686 164.756ZM294.99 167.982C294.833 168.17 294.554 168.195 294.366 168.038C294.179 167.881 294.154 167.602 294.311 167.415C294.467 167.227 294.746 167.202 294.934 167.359C295.121 167.516 295.146 167.795 294.99 167.982ZM292.293 171.21C292.136 171.398 291.857 171.423 291.67 171.266C291.482 171.109 291.457 170.83 291.614 170.642C291.771 170.455 292.05 170.43 292.237 170.587C292.424 170.743 292.45 171.022 292.293 171.21ZM289.596 174.437C289.439 174.625 289.16 174.65 288.973 174.493C288.785 174.336 288.76 174.057 288.917 173.869C289.074 173.682 289.353 173.657 289.54 173.814C289.727 173.97 289.753 174.25 289.596 174.437ZM302.037 165.343C301.88 165.531 301.601 165.556 301.414 165.399C301.226 165.242 301.201 164.963 301.358 164.776C301.515 164.588 301.794 164.563 301.981 164.72C302.17 164.877 302.194 165.156 302.037 165.343ZM299.34 168.57C299.183 168.758 298.904 168.783 298.717 168.626C298.53 168.469 298.504 168.19 298.661 168.002C298.818 167.815 299.097 167.79 299.284 167.947C299.473 168.104 299.497 168.383 299.34 168.57ZM296.643 171.797C296.486 171.985 296.207 172.01 296.02 171.853C295.833 171.696 295.807 171.417 295.964 171.229C296.121 171.042 296.4 171.016 296.587 171.173C296.775 171.33 296.8 171.61 296.643 171.797ZM293.946 175.025C293.79 175.213 293.511 175.238 293.323 175.081C293.136 174.924 293.111 174.645 293.267 174.457C293.424 174.27 293.703 174.244 293.891 174.401C294.078 174.557 294.103 174.838 293.946 175.025Z" fill="white"/>
<path d="M84.8811 182.981C85.1252 182.981 85.3232 182.783 85.3232 182.539C85.3232 182.294 85.1252 182.096 84.8811 182.096C84.6369 182.096 84.439 182.294 84.439 182.539C84.439 182.783 84.6369 182.981 84.8811 182.981Z" fill="white"/>
<path d="M84.8811 187.188C85.1252 187.188 85.3232 186.99 85.3232 186.745C85.3232 186.501 85.1252 186.303 84.8811 186.303C84.6369 186.303 84.439 186.501 84.439 186.745C84.439 186.99 84.6369 187.188 84.8811 187.188Z" fill="white"/>
<path d="M84.8811 191.395C85.1252 191.395 85.3232 191.197 85.3232 190.953C85.3232 190.708 85.1252 190.51 84.8811 190.51C84.6369 190.51 84.439 190.708 84.439 190.953C84.439 191.197 84.6369 191.395 84.8811 191.395Z" fill="white"/>
<path d="M84.8811 195.602C85.1252 195.602 85.3232 195.404 85.3232 195.159C85.3232 194.915 85.1252 194.717 84.8811 194.717C84.6369 194.717 84.439 194.915 84.439 195.159C84.439 195.404 84.6369 195.602 84.8811 195.602Z" fill="white"/>
<path d="M88.5947 180.638C88.8389 180.638 89.0368 180.44 89.0368 180.196C89.0368 179.951 88.8389 179.753 88.5947 179.753C88.3505 179.753 88.1526 179.951 88.1526 180.196C88.1526 180.44 88.3505 180.638 88.5947 180.638Z" fill="white"/>
<path d="M88.5947 184.846C88.8389 184.846 89.0368 184.648 89.0368 184.403C89.0368 184.159 88.8389 183.961 88.5947 183.961C88.3505 183.961 88.1526 184.159 88.1526 184.403C88.1526 184.648 88.3505 184.846 88.5947 184.846Z" fill="white"/>
<path d="M88.5947 189.052C88.8389 189.052 89.0368 188.854 89.0368 188.61C89.0368 188.365 88.8389 188.167 88.5947 188.167C88.3505 188.167 88.1526 188.365 88.1526 188.61C88.1526 188.854 88.3505 189.052 88.5947 189.052Z" fill="white"/>
<path d="M88.5947 193.26C88.8389 193.26 89.0368 193.062 89.0368 192.817C89.0368 192.573 88.8389 192.375 88.5947 192.375C88.3505 192.375 88.1526 192.573 88.1526 192.817C88.1526 193.062 88.3505 193.26 88.5947 193.26Z" fill="white"/>
<path d="M230.377 220.819H161.409V260.415H230.377V220.819Z" fill="#1F4168"/>
<path opacity="0.2" d="M230.377 220.819H161.409V240.618H230.377V220.819Z" fill="#231F20"/>
<path d="M236.174 248.026H155.612C150.369 248.026 146.12 254.354 146.12 262.16H245.667C245.667 254.353 241.417 248.026 236.174 248.026Z" fill="#385877"/>
<path d="M310.843 82.4878H80.9451V213.104H310.843V82.4878Z" fill="white"/>
<path d="M314.225 67.9811C314.225 67.9811 314.218 67.9811 314.218 67.9738C313.886 67.1952 313.486 66.4472 313.031 65.7372C312.931 65.5834 312.823 65.4285 312.716 65.2747C312.369 64.7817 311.999 64.3108 311.59 63.8641C311.275 63.5175 310.95 63.193 310.611 62.8843C310.096 62.4134 309.541 61.9825 308.963 61.5885C306.644 60.0304 303.855 59.1128 300.849 59.1128H90.9377C88.9346 59.1128 87.0314 59.5216 85.2893 60.2464C85.2893 60.2464 85.2819 60.2464 85.2819 60.2537C84.5041 60.5856 83.7567 60.9859 83.0472 61.441C82.8851 61.5411 82.7314 61.6412 82.5851 61.7571C82.0925 62.1037 81.6219 62.4745 81.1746 62.8833C78.2546 65.536 76.4209 69.3686 76.4209 73.6342V216.361C76.4209 216.661 76.4283 216.955 76.4514 217.248C76.4588 217.41 76.4672 217.564 76.4904 217.726C76.4904 217.811 76.4977 217.889 76.5135 217.973C76.5293 218.173 76.5598 218.374 76.5904 218.567C76.6135 218.721 76.6367 218.867 76.6672 219.015C76.6904 219.161 76.7209 219.308 76.7525 219.454C76.7988 219.654 76.8451 219.847 76.8914 220.04C76.9451 220.256 77.0072 220.464 77.0767 220.672C77.123 220.826 77.1767 220.988 77.2304 221.143C77.2693 221.266 77.3156 221.389 77.3693 221.521C77.9167 222.956 78.6872 224.29 79.6419 225.47C79.7272 225.577 79.8188 225.686 79.9041 225.793C79.943 225.839 79.9893 225.886 80.0272 225.932C80.1198 226.032 80.2041 226.132 80.3051 226.233C80.4125 226.357 80.5367 226.48 80.6514 226.596C80.7672 226.719 80.883 226.828 81.0062 226.942C81.0135 226.95 81.0135 226.95 81.022 226.95C81.1451 227.073 81.2683 227.182 81.3914 227.289C81.6462 227.512 81.8998 227.721 82.1693 227.93C82.2998 228.022 82.4241 228.115 82.5546 228.208C82.5704 228.223 82.5851 228.231 82.5935 228.238C82.7325 228.331 82.863 228.424 83.002 228.516C83.2798 228.702 83.5725 228.871 83.8651 229.041C84.0188 229.118 84.1651 229.203 84.3198 229.28C84.4662 229.357 84.6198 229.434 84.7746 229.503C85.2367 229.719 85.7219 229.92 86.2156 230.089C86.4472 230.173 86.6862 230.243 86.9241 230.313C86.9472 230.32 86.963 230.328 86.9862 230.336C87.4872 230.475 87.9956 230.591 88.5114 230.675C88.7114 230.714 88.9198 230.744 89.1198 230.768C89.4514 230.814 89.783 230.845 90.1135 230.86C90.3904 230.876 90.6609 230.884 90.9377 230.884H300.857C301.396 230.884 301.928 230.853 302.451 230.791C302.651 230.775 302.86 230.744 303.06 230.714C303.268 230.683 303.468 230.644 303.677 230.606C303.877 230.567 304.078 230.522 304.278 230.476C304.493 230.422 304.717 230.367 304.925 230.299C305.171 230.229 305.418 230.152 305.657 230.067L306.096 229.905C306.165 229.874 306.226 229.851 306.296 229.821C306.458 229.758 306.619 229.69 306.774 229.62C306.797 229.613 306.82 229.597 306.836 229.59C307.012 229.513 307.182 229.436 307.351 229.343C307.39 229.328 307.421 229.313 307.451 229.297C307.628 229.204 307.813 229.104 307.99 229.004C308.144 228.92 308.29 228.827 308.438 228.742C308.577 228.656 308.716 228.572 308.846 228.479C309.486 228.055 310.087 227.585 310.649 227.076C310.872 226.868 311.088 226.66 311.297 226.436C311.436 226.297 311.559 226.166 311.682 226.02C311.844 225.843 312.005 225.65 312.16 225.457C312.314 225.272 312.461 225.071 312.607 224.871C312.746 224.671 312.885 224.47 313.023 224.262C313.292 223.854 313.539 223.422 313.763 222.982C313.879 222.759 313.986 222.535 314.086 222.311C314.186 222.088 314.286 221.856 314.379 221.625C314.556 221.154 314.718 220.677 314.849 220.191C314.98 219.705 315.088 219.203 315.172 218.695C315.303 217.939 315.365 217.152 315.365 216.358V73.6342C315.366 71.6284 314.958 69.7162 314.225 67.9811ZM310.297 213.104H80.3998V82.4878H310.298V213.104H310.297Z" fill="#1F4168"/>
<g opacity="0.24">
<path opacity="0.24" d="M167.31 125.033H94.0662C93.4799 125.033 93.0051 125.508 93.0051 126.095C93.0051 126.682 93.4799 127.157 94.0662 127.157H167.309C167.896 127.157 168.37 126.682 168.37 126.095C168.371 125.51 167.896 125.033 167.31 125.033Z" fill="#1D1B2C"/>
<path opacity="0.24" d="M123.483 150.375L121.788 151.299L121.939 165.582L122.094 177.192H94.5809L94.6862 165.582L94.8441 151.299L93.1515 150.375L85.9609 146.575C85.9609 146.575 88.3209 137.894 93.9715 133.115C96.3336 131.061 99.303 129.928 101.927 129.262C101.976 129.262 101.976 129.262 102.025 129.262C102.181 129.214 102.384 129.157 102.541 129.109C104.901 128.597 107.002 128.439 107.98 128.392C107.98 128.392 108.087 128.392 108.339 128.392C108.546 128.392 108.698 128.392 108.698 128.392C109.676 128.44 111.728 128.597 114.088 129.109C114.297 129.158 114.447 129.215 114.65 129.262C117.266 129.879 120.244 131.061 122.661 133.115C128.303 137.894 130.665 146.575 130.665 146.575L123.483 150.375Z" fill="#FBA31C"/>
<path opacity="0.5" d="M94.6861 165.582L94.844 151.298L93.1514 150.375L96.8419 144.312L94.6861 165.582Z" fill="#208F71"/>
<path opacity="0.5" d="M121.964 165.582L121.808 151.298L123.503 150.375L119.812 144.312L121.964 165.582Z" fill="#208F71"/>
<path opacity="0.5" d="M103.415 177.191H98.1746L99.2019 174.469V175.803L100.795 169.487L101.201 174.315L101.671 173.186L103.415 177.191Z" fill="#208F71"/>
<path opacity="0.24" d="M114.65 129.928C114.297 131.78 111.624 133.22 108.339 133.22C105.051 133.22 102.338 131.78 102.025 129.928C102.181 129.879 102.384 129.827 102.541 129.779C104.901 129.263 107.002 129.105 107.98 129.057C107.98 129.057 108.087 129.057 108.339 129.057C108.546 129.057 108.698 129.057 108.698 129.057C109.676 129.105 111.728 129.262 114.088 129.779C114.297 129.827 114.447 129.879 114.65 129.928Z" fill="#F1F2F2"/>
<path opacity="0.24" d="M114.088 129.779C113.885 131.522 111.416 132.909 108.339 132.909C105.26 132.909 102.747 131.522 102.541 129.779C104.901 129.263 107.002 129.105 107.98 129.057C107.98 129.057 108.087 129.057 108.339 129.057C108.546 129.057 108.698 129.057 108.698 129.057C109.676 129.105 111.729 129.262 114.088 129.779Z" fill="url(#paint0_linear_62_309)"/>
<path opacity="0.24" d="M110.563 125.082H109.411C109.224 124.639 108.794 124.338 108.278 124.338C107.773 124.338 107.333 124.64 107.147 125.082H106.01C106.229 124.036 107.167 123.235 108.278 123.235C109.41 123.235 110.34 124.036 110.563 125.082Z" fill="#1F4168"/>
<g opacity="0.24">
<path opacity="0.24" d="M145.833 150.375L144.139 151.299L144.289 165.582L144.444 177.192H116.93L117.036 165.582L117.193 151.299L115.501 150.375L108.31 146.575C108.31 146.575 110.67 137.894 116.321 133.115C118.681 131.061 121.652 129.928 124.277 129.262C124.325 129.262 124.325 129.262 124.376 129.262C124.53 129.214 124.735 129.157 124.891 129.109C127.251 128.597 129.352 128.439 130.33 128.392C130.33 128.392 130.438 128.392 130.689 128.392C130.897 128.392 131.048 128.392 131.048 128.392C132.026 128.44 134.08 128.597 136.439 129.109C136.646 129.158 136.798 129.215 137.001 129.262C139.617 129.879 142.596 131.061 145.011 133.115C150.653 137.894 153.016 146.575 153.016 146.575L145.833 150.375Z" fill="#FCBF44"/>
<path opacity="0.5" d="M117.037 165.582L117.193 151.298L115.501 150.375L119.192 144.312L117.037 165.582Z" fill="#208F71"/>
<path opacity="0.5" d="M144.313 165.582L144.159 151.298L145.853 150.375L142.16 144.312L144.313 165.582Z" fill="#208F71"/>
<path opacity="0.5" d="M125.764 177.191H120.524L121.552 174.469V175.803L123.145 169.487L123.551 174.315L124.022 173.186L125.764 177.191Z" fill="#208F71"/>
<path opacity="0.24" d="M137.001 129.928C136.647 131.78 133.974 133.22 130.689 133.22C127.402 133.22 124.686 131.78 124.375 129.928C124.53 129.879 124.734 129.827 124.891 129.779C127.251 129.263 129.352 129.105 130.33 129.057C130.33 129.057 130.438 129.057 130.689 129.057C130.897 129.057 131.048 129.057 131.048 129.057C132.026 129.105 134.08 129.262 136.439 129.779C136.646 129.827 136.798 129.879 137.001 129.928Z" fill="#F1F2F2"/>
<path opacity="0.24" d="M136.439 129.779C136.236 131.522 133.766 132.909 130.689 132.909C127.61 132.909 125.098 131.522 124.891 129.779C127.251 129.263 129.352 129.105 130.33 129.057C130.33 129.057 130.438 129.057 130.689 129.057C130.897 129.057 131.048 129.057 131.048 129.057C132.025 129.105 134.079 129.262 136.439 129.779Z" fill="url(#paint1_linear_62_309)"/>
<path opacity="0.24" d="M132.913 125.082H131.761C131.572 124.639 131.144 124.338 130.628 124.338C130.123 124.338 129.683 124.64 129.498 125.082H128.361C128.58 124.036 129.518 123.235 130.628 123.235C131.761 123.235 132.69 124.036 132.913 125.082Z" fill="#1F4168"/>
</g>
<g opacity="0.24">
<path opacity="0.24" d="M168.184 150.375L166.489 151.299L166.64 165.582L166.796 177.192H139.282L139.385 165.582L139.545 151.299L137.851 150.375L130.662 146.575C130.662 146.575 133.022 137.894 138.673 133.115C141.033 131.061 144.004 129.928 146.628 129.262C146.677 129.262 146.677 129.262 146.727 129.262C146.882 129.214 147.086 129.157 147.243 129.109C149.603 128.597 151.704 128.439 152.682 128.392C152.682 128.392 152.789 128.392 153.041 128.392C153.246 128.392 153.4 128.392 153.4 128.392C154.378 128.44 156.429 128.597 158.791 129.109C158.998 129.158 159.149 129.215 159.353 129.262C161.968 129.879 164.946 131.061 167.363 133.115C173.005 137.894 175.367 146.575 175.367 146.575L168.184 150.375Z" fill="#385877"/>
<path opacity="0.5" d="M139.385 165.582L139.544 151.298L137.849 150.375L141.543 144.312L139.385 165.582Z" fill="#208F71"/>
<path opacity="0.5" d="M166.664 165.582L166.509 151.298L168.204 150.375L164.51 144.312L166.664 165.582Z" fill="#208F71"/>
<path opacity="0.5" d="M148.115 177.191H142.875L143.903 174.469V175.803L145.495 169.487L145.902 174.315L146.372 173.186L148.115 177.191Z" fill="#208F71"/>
<path opacity="0.24" d="M159.352 129.928C158.997 131.78 156.325 133.22 153.04 133.22C149.753 133.22 147.037 131.78 146.726 129.928C146.881 129.879 147.085 129.827 147.242 129.779C149.602 129.263 151.703 129.105 152.681 129.057C152.681 129.057 152.788 129.057 153.04 129.057C153.245 129.057 153.399 129.057 153.399 129.057C154.377 129.105 156.428 129.262 158.789 129.779C158.997 129.827 159.148 129.879 159.352 129.928Z" fill="#F1F2F2"/>
<path opacity="0.24" d="M158.789 129.779C158.586 131.522 156.117 132.909 153.04 132.909C149.961 132.909 147.448 131.522 147.242 129.779C149.602 129.263 151.703 129.105 152.681 129.057C152.681 129.057 152.788 129.057 153.04 129.057C153.245 129.057 153.399 129.057 153.399 129.057C154.376 129.105 156.427 129.262 158.789 129.779Z" fill="url(#paint2_linear_62_309)"/>
<path opacity="0.24" d="M155.264 125.082H154.111C153.923 124.639 153.492 124.338 152.979 124.338C152.474 124.338 152.034 124.64 151.846 125.082H150.711C150.93 124.036 151.868 123.235 152.98 123.235C154.111 123.235 155.041 124.036 155.264 125.082Z" fill="#1F4168"/>
<g opacity="0.24">
<path opacity="0.24" d="M108.704 127.078L108.617 126.991C108.617 126.991 108.33 126.842 108.278 126.842C108.146 126.842 108.006 126.824 107.89 126.777C107.381 126.619 107.026 126.147 107.026 125.591C107.026 125.406 107.065 125.236 107.146 125.083H106.009C105.965 125.249 105.948 125.42 105.948 125.591C105.948 126.011 106.068 126.418 106.267 126.777C106.606 127.35 107.186 127.774 107.85 127.888V128.556C105.798 128.61 103.919 129.041 102.403 129.726C102.417 129.739 102.43 129.766 102.457 129.806C102.497 129.873 102.55 129.954 102.591 130.048C102.671 130.195 102.753 130.344 102.753 130.344C102.753 130.344 102.834 130.586 102.954 130.801C102.994 130.869 103.047 130.936 103.087 130.99H113.549L113.764 130.681L114.006 130.318C114.006 130.318 114.221 130.035 114.315 129.848C114.328 129.834 114.328 129.808 114.342 129.794C112.784 129.068 110.852 128.598 108.703 128.557V127.078H108.704ZM131.055 127.078L130.967 126.991C130.967 126.991 130.681 126.842 130.628 126.842C130.497 126.842 130.357 126.824 130.241 126.777C129.732 126.619 129.377 126.147 129.377 125.591C129.377 125.406 129.416 125.236 129.497 125.083H128.36C128.317 125.249 128.299 125.42 128.299 125.591C128.299 126.011 128.419 126.418 128.618 126.777C128.957 127.35 129.536 127.774 130.201 127.888V128.556C128.147 128.61 126.268 129.04 124.752 129.726C124.765 129.739 124.779 129.766 124.805 129.806C124.845 129.873 124.899 129.954 124.94 130.048C125.02 130.195 125.101 130.344 125.101 130.344C125.101 130.344 125.181 130.586 125.302 130.801C125.342 130.869 125.396 130.936 125.437 130.99H135.899L136.114 130.681L136.356 130.318C136.356 130.318 136.57 130.035 136.664 129.848C136.678 129.834 136.678 129.808 136.692 129.794C135.148 129.068 133.202 128.598 131.055 128.557V127.078ZM153.405 128.556V127.078L153.318 126.991C153.318 126.991 153.032 126.842 152.979 126.842C152.847 126.842 152.707 126.824 152.592 126.777C152.082 126.619 151.727 126.147 151.727 125.591C151.727 125.406 151.767 125.236 151.845 125.083H150.71C150.667 125.249 150.649 125.42 150.649 125.591C150.649 126.011 150.769 126.418 150.968 126.777C151.307 127.35 151.887 127.774 152.552 127.888V128.556C150.497 128.61 148.617 129.04 147.113 129.726C147.126 129.739 147.14 129.766 147.166 129.806C147.206 129.873 147.26 129.954 147.301 130.048V130.062C147.382 130.209 147.448 130.344 147.448 130.344C147.448 130.344 147.528 130.586 147.649 130.801C147.689 130.869 147.743 130.936 147.784 130.99H158.26L158.435 130.721L158.703 130.318C158.703 130.318 158.918 130.035 159.025 129.848C159.039 129.834 159.039 129.808 159.052 129.794C157.496 129.067 155.538 128.596 153.405 128.556Z" fill="#1F4168"/>
</g>
</g>
<g opacity="0.24">
<path opacity="0.24" d="M296.835 125.033H223.592C223.006 125.033 222.531 125.508 222.531 126.095C222.531 126.682 223.006 127.157 223.592 127.157H296.835C297.422 127.157 297.897 126.682 297.897 126.095C297.895 125.51 297.421 125.033 296.835 125.033Z" fill="#1D1B2C"/>
<path opacity="0.24" d="M253.008 150.375L251.313 151.299L251.464 165.582L251.62 177.192H224.106L224.211 165.582L224.369 151.299L222.677 150.375L215.486 146.575C215.486 146.575 217.846 137.894 223.497 133.115C225.859 131.061 228.828 129.928 231.452 129.262C231.501 129.262 231.501 129.262 231.55 129.262C231.706 129.214 231.909 129.157 232.066 129.109C234.426 128.597 236.527 128.439 237.505 128.392C237.505 128.392 237.612 128.392 237.864 128.392C238.071 128.392 238.223 128.392 238.223 128.392C239.201 128.44 241.253 128.597 243.613 129.109C243.822 129.158 243.972 129.215 244.176 129.262C246.791 129.879 249.769 131.061 252.186 133.115C257.828 137.894 260.19 146.575 260.19 146.575L253.008 150.375Z" fill="#FBA31C"/>
<path opacity="0.5" d="M224.211 165.582L224.368 151.298L222.676 150.375L226.367 144.312L224.211 165.582Z" fill="#208F71"/>
<path opacity="0.5" d="M251.488 165.582L251.334 151.298L253.028 150.375L249.337 144.312L251.488 165.582Z" fill="#208F71"/>
<path opacity="0.5" d="M232.939 177.191H227.7L228.727 174.469V175.803L230.319 169.487L230.726 174.315L231.197 173.186L232.939 177.191Z" fill="#208F71"/>
<path opacity="0.24" d="M244.176 129.928C243.822 131.78 241.149 133.22 237.864 133.22C234.577 133.22 231.863 131.78 231.55 129.928C231.706 129.879 231.909 129.827 232.066 129.779C234.426 129.263 236.527 129.105 237.505 129.057C237.505 129.057 237.612 129.057 237.864 129.057C238.071 129.057 238.223 129.057 238.223 129.057C239.201 129.105 241.253 129.262 243.613 129.779C243.821 129.827 243.972 129.879 244.176 129.928Z" fill="#F1F2F2"/>
<path opacity="0.24" d="M243.614 129.779C243.41 131.522 240.941 132.909 237.864 132.909C234.785 132.909 232.272 131.522 232.066 129.779C234.426 129.263 236.527 129.105 237.505 129.057C237.505 129.057 237.612 129.057 237.864 129.057C238.071 129.057 238.223 129.057 238.223 129.057C239.2 129.105 241.254 129.262 243.614 129.779Z" fill="url(#paint3_linear_62_309)"/>
<path opacity="0.24" d="M240.088 125.082H238.936C238.749 124.639 238.319 124.338 237.803 124.338C237.298 124.338 236.858 124.64 236.672 125.082H235.536C235.755 124.036 236.692 123.235 237.803 123.235C238.936 123.235 239.865 124.036 240.088 125.082Z" fill="#1F4168"/>
<g opacity="0.24">
<path opacity="0.24" d="M275.359 150.375L273.664 151.299L273.815 165.582L273.969 177.192H246.456L246.561 165.582L246.719 151.299L245.026 150.375L237.836 146.575C237.836 146.575 240.196 137.894 245.846 133.115C248.206 131.061 251.178 129.928 253.802 129.262C253.85 129.262 253.85 129.262 253.901 129.262C254.056 129.214 254.26 129.157 254.417 129.109C256.777 128.597 258.878 128.439 259.856 128.392C259.856 128.392 259.963 128.392 260.215 128.392C260.422 128.392 260.574 128.392 260.574 128.392C261.551 128.44 263.605 128.597 265.964 129.109C266.171 129.158 266.323 129.215 266.526 129.262C269.142 129.879 272.121 131.061 274.537 133.115C280.179 137.894 282.541 146.575 282.541 146.575L275.359 150.375Z" fill="#FCBF44"/>
<path opacity="0.5" d="M246.562 165.582L246.719 151.298L245.026 150.375L248.718 144.312L246.562 165.582Z" fill="#208F71"/>
<path opacity="0.5" d="M273.839 165.582L273.684 151.298L275.379 150.375L271.685 144.312L273.839 165.582Z" fill="#208F71"/>
<path opacity="0.5" d="M255.289 177.191H250.049L251.078 174.469V175.803L252.669 169.487L253.077 174.315L253.546 173.186L255.289 177.191Z" fill="#208F71"/>
<path opacity="0.24" d="M266.526 129.928C266.172 131.78 263.5 133.22 260.215 133.22C256.927 133.22 254.211 131.78 253.901 129.928C254.056 129.879 254.26 129.827 254.417 129.779C256.777 129.263 258.878 129.105 259.856 129.057C259.856 129.057 259.963 129.057 260.215 129.057C260.422 129.057 260.574 129.057 260.574 129.057C261.551 129.105 263.605 129.262 265.964 129.779C266.171 129.827 266.323 129.879 266.526 129.928Z" fill="#F1F2F2"/>
<path opacity="0.24" d="M265.964 129.779C265.761 131.522 263.291 132.909 260.215 132.909C257.136 132.909 254.623 131.522 254.417 129.779C256.777 129.263 258.878 129.105 259.856 129.057C259.856 129.057 259.963 129.057 260.215 129.057C260.422 129.057 260.574 129.057 260.574 129.057C261.55 129.105 263.604 129.262 265.964 129.779Z" fill="url(#paint4_linear_62_309)"/>
<path opacity="0.24" d="M262.439 125.082H261.286C261.098 124.639 260.669 124.338 260.154 124.338C259.648 124.338 259.208 124.64 259.023 125.082H257.886C258.105 124.036 259.043 123.235 260.154 123.235C261.286 123.235 262.216 124.036 262.439 125.082Z" fill="#1F4168"/>
</g>
<g opacity="0.24">
<path opacity="0.24" d="M297.709 150.375L296.015 151.299L296.165 165.582L296.321 177.192H268.807L268.91 165.582L269.07 151.299L267.376 150.375L260.187 146.575C260.187 146.575 262.547 137.894 268.198 133.115C270.558 131.061 273.529 129.928 276.154 129.262C276.202 129.262 276.202 129.262 276.253 129.262C276.407 129.214 276.611 129.157 276.768 129.109C279.128 128.597 281.229 128.439 282.207 128.392C282.207 128.392 282.315 128.392 282.566 128.392C282.771 128.392 282.925 128.392 282.925 128.392C283.903 128.44 285.954 128.597 288.316 129.109C288.523 129.158 288.675 129.215 288.878 129.262C291.494 129.879 294.471 131.061 296.888 133.115C302.53 137.894 304.893 146.575 304.893 146.575L297.709 150.375Z" fill="#385877"/>
<path opacity="0.5" d="M268.909 165.582L269.069 151.298L267.375 150.375L271.068 144.312L268.909 165.582Z" fill="#208F71"/>
<path opacity="0.5" d="M296.189 165.582L296.034 151.298L297.729 150.375L294.036 144.312L296.189 165.582Z" fill="#208F71"/>
<path opacity="0.5" d="M277.64 177.191H272.4L273.428 174.469V175.803L275.02 169.487L275.426 174.315L275.897 173.186L277.64 177.191Z" fill="#208F71"/>
<path opacity="0.24" d="M288.877 129.928C288.522 131.78 285.85 133.22 282.565 133.22C279.278 133.22 276.562 131.78 276.251 129.928C276.406 129.879 276.61 129.827 276.767 129.779C279.127 129.263 281.228 129.105 282.206 129.057C282.206 129.057 282.314 129.057 282.565 129.057C282.77 129.057 282.924 129.057 282.924 129.057C283.902 129.105 285.952 129.262 288.315 129.779C288.522 129.827 288.672 129.879 288.877 129.928Z" fill="#F1F2F2"/>
<path opacity="0.24" d="M288.315 129.779C288.111 131.522 285.642 132.909 282.565 132.909C279.486 132.909 276.973 131.522 276.767 129.779C279.127 129.263 281.228 129.105 282.206 129.057C282.206 129.057 282.313 129.057 282.565 129.057C282.77 129.057 282.924 129.057 282.924 129.057C283.901 129.105 285.952 129.262 288.315 129.779Z" fill="url(#paint5_linear_62_309)"/>
<path opacity="0.24" d="M284.789 125.082H283.637C283.448 124.639 283.018 124.338 282.504 124.338C281.999 124.338 281.559 124.64 281.371 125.082H280.237C280.456 124.036 281.393 123.235 282.505 123.235C283.637 123.235 284.566 124.036 284.789 125.082Z" fill="#1F4168"/>
<g opacity="0.24">
<path opacity="0.24" d="M238.229 127.078L238.142 126.991C238.142 126.991 237.856 126.842 237.803 126.842C237.671 126.842 237.531 126.824 237.416 126.777C236.906 126.619 236.551 126.147 236.551 125.591C236.551 125.406 236.59 125.236 236.671 125.083H235.535C235.49 125.249 235.473 125.42 235.473 125.591C235.473 126.011 235.593 126.418 235.792 126.777C236.131 127.35 236.711 127.774 237.376 127.888V128.556C235.323 128.61 233.444 129.041 231.928 129.726C231.942 129.739 231.956 129.766 231.982 129.806C232.022 129.873 232.076 129.954 232.117 130.048C232.197 130.195 232.278 130.344 232.278 130.344C232.278 130.344 232.359 130.586 232.479 130.801C232.519 130.869 232.572 130.936 232.612 130.99H243.075L243.289 130.681L243.531 130.318C243.531 130.318 243.746 130.035 243.84 129.848C243.853 129.834 243.853 129.808 243.867 129.794C242.309 129.068 240.377 128.598 238.228 128.557V127.078H238.229ZM260.58 127.078L260.492 126.991C260.492 126.991 260.206 126.842 260.153 126.842C260.022 126.842 259.882 126.824 259.766 126.777C259.257 126.619 258.902 126.147 258.902 125.591C258.902 125.406 258.941 125.236 259.022 125.083H257.885C257.842 125.249 257.824 125.42 257.824 125.591C257.824 126.011 257.944 126.418 258.143 126.777C258.482 127.35 259.062 127.774 259.726 127.888V128.556C257.672 128.61 255.793 129.04 254.277 129.726C254.29 129.739 254.303 129.766 254.33 129.806C254.37 129.873 254.424 129.954 254.465 130.048C254.545 130.195 254.626 130.344 254.626 130.344C254.626 130.344 254.706 130.586 254.827 130.801C254.867 130.869 254.921 130.936 254.962 130.99H265.424L265.639 130.681L265.881 130.318C265.881 130.318 266.096 130.035 266.189 129.848C266.203 129.834 266.203 129.808 266.217 129.794C264.674 129.068 262.727 128.598 260.58 128.557V127.078ZM282.93 128.556V127.078L282.843 126.991C282.843 126.991 282.557 126.842 282.504 126.842C282.372 126.842 282.232 126.824 282.117 126.777C281.607 126.619 281.252 126.147 281.252 125.591C281.252 125.406 281.291 125.236 281.37 125.083H280.236C280.191 125.249 280.175 125.42 280.175 125.591C280.175 126.011 280.295 126.418 280.493 126.777C280.832 127.35 281.412 127.774 282.077 127.888V128.556C280.022 128.61 278.142 129.04 276.638 129.726C276.651 129.739 276.664 129.766 276.691 129.806C276.731 129.873 276.785 129.954 276.826 130.048V130.062C276.907 130.209 276.973 130.344 276.973 130.344C276.973 130.344 277.053 130.586 277.175 130.801C277.215 130.869 277.268 130.936 277.309 130.99H287.785L287.96 130.721L288.228 130.318C288.228 130.318 288.443 130.035 288.55 129.848C288.564 129.834 288.564 129.808 288.578 129.794C287.021 129.067 285.063 128.596 282.93 128.556Z" fill="#1F4168"/>
</g>
</g>
</g>
</g>
<g opacity="0.2">
<path opacity="0.2" d="M99.842 109.782C115.552 101.415 131.435 93.382 147.408 85.5335C149.478 84.5168 151.554 83.5107 153.626 82.4994H80.9368V120.209C87.2041 116.673 93.4873 113.167 99.842 109.782Z" fill="url(#paint6_linear_62_309)"/>
<path opacity="0.2" d="M90.28 196.017C106.403 187.506 122.757 179.441 139.229 171.632C195.763 144.831 253.124 119.608 310.849 95.4648V82.4994H232.563C224.474 86.3447 216.381 90.1826 208.292 94.0289C176.139 109.319 144.052 124.788 112.687 141.655C102.005 147.4 91.4979 153.45 80.9358 159.404V200.944C84.06 199.285 87.1842 197.652 90.28 196.017Z" fill="url(#paint7_linear_62_309)"/>
<path opacity="0.2" d="M302.54 135.78C294.98 139.004 287.429 142.251 279.889 145.52C265.031 151.961 250.183 158.438 235.423 165.103C206 178.391 176.481 191.481 147.391 205.492C142.2 207.992 137.028 210.534 131.868 213.098H310.849V132.251C308.078 133.422 305.308 134.599 302.54 135.78Z" fill="url(#paint8_linear_62_309)"/>
</g>
<path d="M115.164 143.462C115.164 143.462 113.273 142.283 113.552 141.039C113.83 139.795 117.394 142.692 117.394 142.692C117.394 142.692 115.927 144.068 115.164 143.462Z" fill="#D16F52"/>
<path d="M47.0156 153.483C47.0156 153.483 35.7314 165.1 39.663 169.17C43.5946 173.238 54.6335 161.436 54.6335 161.436L47.0156 153.483Z" fill="#F18A66"/>
<path d="M81.9135 250.631C81.203 250.937 80.6851 249.68 80.6851 249.68L80.8293 248.066L84.1903 242.208C84.1903 242.208 85.504 242.095 86.1093 243.357C86.1566 243.456 86.2051 243.555 86.2524 243.657C86.2545 243.663 86.2577 243.667 86.2598 243.674C86.443 244.05 86.6377 244.442 86.8324 244.835C87.2914 245.762 84.1745 247.875 84.563 248.56C84.5819 248.593 84.6008 248.627 84.6198 248.663C84.7556 248.909 84.8819 249.182 85.004 249.474C85.9208 251.652 88.4861 252.13 87.3293 253.16C85.9419 254.398 82.6219 250.326 81.9135 250.631Z" fill="#1D1B2C"/>
<path d="M66.3726 188.165C66.3726 188.165 73.0841 197.936 85.2115 214.854C83.8136 223.189 82.2231 230.057 82.242 244.505L86.1347 246.567C86.1347 246.567 106.578 228.638 106.613 206.717C106.637 191.63 97.7147 184.938 96.2189 181.357C92.5515 172.572 66.3726 188.165 66.3726 188.165Z" fill="#3D2509"/>
<path d="M55.4809 264.435C54.9135 264.961 54.0051 263.952 54.0051 263.952L53.5999 262.383L54.7998 255.734C54.7998 255.734 55.9999 255.187 56.9935 256.172C57.0714 256.249 57.1504 256.325 57.2293 256.406C57.2335 256.411 57.2377 256.413 57.242 256.418C57.5409 256.71 57.8567 257.014 58.1714 257.319C58.9146 258.038 56.6883 261.077 57.2841 261.591C57.3135 261.616 57.342 261.64 57.3725 261.669C57.583 261.854 57.7935 262.069 58.0062 262.303C59.6009 264.047 62.1777 263.635 61.4335 264.994C60.5388 266.629 56.0451 263.91 55.4809 264.435Z" fill="#1D1B2C"/>
<path d="M58.4642 180.11C58.4642 180.11 47.2505 205.743 54.2358 258.107L58.3252 258.61C58.3252 258.61 88.5 195.124 88.581 185.602C88.6621 176.083 58.4642 180.11 58.4642 180.11Z" fill="#5E3E13"/>
<path d="M78.0494 139.633C78.0494 139.633 64.6178 135.373 58.1346 140.637C58.1304 140.64 44.3441 153.095 42.3062 158.278C41.5651 160.161 49.1704 167.206 51.7262 165.581C52.3546 165.182 54.323 164.375 54.9704 162.952C54.9188 165.782 54.183 164.339 54.2557 167.032C54.4199 172.764 55.5083 178.199 58.0852 181.98C62.7662 188.843 73.0462 191.18 82.2589 191.206C104.811 191.268 90.6652 142.058 78.0494 139.633Z" fill="#FBA31C"/>
<path d="M65.9577 136.06C65.9577 136.06 69.7998 137.329 69.4335 139.526C69.0672 141.724 61.2619 141.287 61.4451 139.003C61.6282 136.719 65.9577 136.06 65.9577 136.06Z" fill="#FCBF44"/>
<path d="M86.5062 149.471C85.8735 150.871 84.6135 153.351 82.703 152.734C82.3167 152.609 81.9704 152.389 81.5946 152.239C81.0641 152.026 80.4925 151.939 79.9241 151.92C79.3978 151.902 78.8704 151.94 78.3472 151.987C78.0114 152.017 77.7272 152.029 77.4199 152.176C77.0883 152.335 76.9935 152.536 76.7978 152.84C75.7925 154.409 74.0325 154.15 72.422 153.948C71.7841 153.868 71.1178 153.817 70.503 154.048C69.9599 154.252 69.5199 154.65 69.0272 154.945C68.1662 155.46 67.2146 155.725 66.2146 155.755C65.7872 155.768 65.7388 155.104 66.1683 155.092C67.3304 155.057 68.2704 154.659 69.222 154.018C69.9788 153.508 70.7072 153.202 71.6335 153.22C72.5599 153.238 73.4683 153.51 74.3956 153.462C74.8925 153.436 75.3988 153.333 75.7946 153.014C76.1367 152.739 76.2872 152.336 76.5525 151.999C77.0683 151.342 77.8672 151.353 78.6378 151.294C79.5135 151.227 80.4262 151.21 81.283 151.438C82.2178 151.688 83.163 152.579 84.0914 151.876C84.9304 151.241 85.4872 150.111 85.9093 149.176C86.0862 148.785 86.682 149.08 86.5062 149.471Z" fill="white"/>
<path d="M87.7019 152.356C87.0693 153.756 85.8093 156.236 83.8988 155.618C83.5124 155.493 83.1661 155.274 82.7903 155.123C82.2598 154.91 81.6882 154.823 81.1198 154.803C80.5935 154.785 80.0661 154.823 79.543 154.87C79.2072 154.9 78.923 154.913 78.6156 155.059C78.284 155.218 78.1893 155.419 77.9935 155.724C76.9882 157.292 75.2282 157.033 73.6177 156.831C72.9798 156.751 72.3135 156.7 71.6988 156.931C71.1556 157.135 70.7156 157.534 70.223 157.829C69.3619 158.344 68.4103 158.608 67.4093 158.639C66.983 158.651 66.9335 157.988 67.363 157.975C68.5251 157.94 69.464 157.542 70.4167 156.902C71.1735 156.392 71.9019 156.085 72.8282 156.103C73.7545 156.121 74.663 156.394 75.5903 156.345C76.0872 156.319 76.5935 156.217 76.9893 155.898C77.3314 155.623 77.4819 155.219 77.7472 154.882C78.263 154.226 79.0619 154.236 79.8324 154.177C80.7093 154.111 81.6209 154.093 82.4777 154.322C83.4124 154.571 84.3587 155.463 85.2861 154.76C86.1251 154.125 86.6819 152.994 87.104 152.06C87.2819 151.671 87.8777 151.965 87.7019 152.356Z" fill="white"/>
<path d="M57.982 175.544C58.402 179.429 55.5957 182.917 51.7147 183.337C47.8336 183.756 44.3473 180.949 43.9283 177.065C43.5083 173.18 46.3147 169.691 50.1957 169.272C54.0757 168.853 57.562 171.661 57.982 175.544Z" fill="#385877"/>
<path d="M56.1704 179.651L70.9125 200.268L77.5083 199.555L64.2252 177.16L56.1704 179.651Z" fill="#1F4168"/>
<path d="M77.5083 199.555L80.6146 196.211L66.603 175.63L64.2251 177.16L77.5083 199.555Z" fill="#385877"/>
<path d="M71.5851 183.337L72.8862 182.455L70.6209 179.611L65.6167 180.152L71.5851 183.337Z" fill="#385877"/>
<path d="M69.1556 179.769L71.5851 183.337L68.0904 183.715L65.6167 180.152L69.1556 179.769Z" fill="#1D1B2C"/>
<path d="M92.2179 181.545C74.0347 177.964 63.5873 182.038 57.6884 183.535C53.6684 184.557 48.6715 179.988 46.9252 175.091C45.6431 171.501 46.1073 167.738 49.9747 165.87C62.3673 159.885 76.2589 142.781 76.2589 142.781L77.761 146.424L92.2179 181.545Z" fill="white"/>
<path d="M103.795 179.804C93.4777 182.312 82.4756 173.489 79.2293 160.101C75.9788 146.71 81.7125 133.826 92.0325 131.316C102.354 128.807 113.351 137.631 116.602 151.018C119.848 164.41 114.116 177.294 103.795 179.804Z" fill="#385877"/>
<path d="M96.7148 144.441L77.86 150.002C77.86 150.002 75.7179 169.907 88.5821 175.684L101.614 166.083L96.7148 144.441Z" fill="#1D1B2C"/>
<path d="M107.149 153.317C105.71 147.371 100.877 143.415 96.379 144.512C91.8854 145.606 89.4001 151.333 90.8433 157.279C92.1991 162.865 96.5401 166.688 100.791 166.228C101.062 166.199 101.34 166.149 101.612 166.083C105.634 165.109 108.041 160.428 107.476 155.196C107.411 154.575 107.302 153.948 107.149 153.317ZM101.044 163.735C97.8433 164.514 94.319 161.361 93.1896 156.709C92.0601 152.058 93.7475 147.635 96.9527 146.86C97.1306 146.816 97.3085 146.785 97.4843 146.766C99.0085 146.602 100.575 147.282 101.889 148.553C103.203 149.827 104.274 151.688 104.806 153.885C105.933 158.542 104.245 162.959 101.044 163.735Z" fill="#1F4168"/>
<path d="M101.043 163.736C100.814 163.793 100.565 163.832 100.336 163.832C97.3537 164.042 94.2379 161.02 93.1864 156.715C92.059 152.066 93.7411 147.628 96.9516 146.863C97.1242 146.825 97.3148 146.786 97.4864 146.767C99.0158 146.595 100.564 147.283 101.883 148.546C103.202 149.828 104.273 151.684 104.807 153.883C105.937 158.551 104.255 162.951 101.043 163.736Z" fill="white"/>
<path d="M101.043 163.736C100.814 163.793 100.565 163.832 100.336 163.832C97.3537 164.042 94.2379 161.02 93.1864 156.715C92.059 152.066 93.7411 147.628 96.9516 146.863C97.1242 146.825 97.3148 146.786 97.4864 146.767C99.0158 146.595 100.564 147.283 101.883 148.546C103.202 149.828 104.273 151.684 104.807 153.883C105.937 158.551 104.255 162.951 101.043 163.736Z" fill="white"/>
<path opacity="0.3" d="M96.379 144.512L92.499 151.312L77.6958 161.68L77.86 150.002L96.379 144.512Z" fill="#231F20"/>
<path opacity="0.3" d="M77.6968 161.68L46.9252 175.09C45.6431 171.5 46.1073 167.737 49.9747 165.869C62.3673 159.884 76.2589 142.781 76.2589 142.781L77.761 146.424C76.4968 151.541 75.6084 157.958 77.6968 161.68Z" fill="#C1C1C1"/>
<path d="M118.266 150.615C114.726 136.037 102.244 126.551 90.3862 129.434C78.5283 132.316 71.783 146.472 75.3188 161.05C78.8557 175.63 91.3367 185.114 103.196 182.232C115.054 179.351 121.802 165.195 118.266 150.615ZM103.795 179.804C93.4778 182.312 82.4756 173.489 79.2293 160.101C75.9788 146.71 81.7125 133.826 92.0325 131.316C102.354 128.807 113.351 137.631 116.602 151.018C119.848 164.41 114.116 177.294 103.795 179.804Z" fill="#1F4168"/>
<path d="M67.8579 185.553C67.6 185.405 67.2558 185.156 66.7863 184.74C66.7863 184.74 66.7905 184.741 66.7979 184.746C66.5569 184.546 66.319 184.323 66.0926 184.087C65.7021 183.68 65.439 183.361 65.2653 183.126C65.2653 183.124 65.2642 183.124 65.2632 183.124C65.0074 182.777 64.9453 182.612 64.9453 182.612C64.9453 182.612 60.1095 179.97 59.6179 179.443C59.3232 178.725 61.2116 176.817 61.2116 176.817C61.8705 176.67 65.8063 179.615 66.8958 179.607C68.1663 179.596 70.7263 178.111 70.7432 179.079C70.7611 180.049 68.7642 180.449 68.7642 180.449C68.7642 180.449 68.7884 180.457 68.8326 180.475C69.1011 180.575 70.1032 180.978 70.8547 181.638L70.8558 181.639C71.0632 181.823 71.2526 182.026 71.4011 182.25C71.4263 182.29 71.4526 182.329 71.4758 182.369C71.5179 182.441 71.5558 182.515 71.5874 182.592C71.5926 182.604 71.599 182.617 71.6032 182.63C71.619 182.668 71.6337 182.707 71.6463 182.746L71.6474 182.75C71.6474 182.751 71.6474 182.751 71.6463 182.752C71.6505 182.864 71.62 182.999 71.5232 183.155C71.2095 183.656 70.7768 183.474 70.7768 183.474C70.7768 183.474 71.0316 183.859 70.7168 184.225C70.3832 184.615 70.1032 184.352 70.1032 184.352C70.1032 184.352 70.2358 184.832 69.9611 185.129C69.6716 185.443 69.3526 185.131 69.3526 185.131C69.3526 185.131 69.4958 185.458 69.16 185.829C68.859 186.158 67.8579 185.553 67.8579 185.553Z" fill="#F18A66"/>
<path opacity="0.2" d="M69.5338 184.083C69.5391 184.099 69.5359 184.117 69.5191 184.131C69.3254 184.3 69.1496 184.467 69.0864 184.724C69.0654 184.81 69.0412 184.907 68.9612 184.956C68.9243 184.979 68.8822 184.987 68.8422 184.998C68.7875 185.014 68.7485 185.046 68.7075 185.084C68.5727 185.21 68.4622 185.365 68.3749 185.527C68.3349 185.601 68.298 185.679 68.2654 185.76C68.5791 185.897 68.9875 186.019 69.1622 185.826C69.498 185.456 69.3549 185.129 69.3549 185.129C69.3549 185.129 69.6738 185.44 69.9633 185.127C70.238 184.83 70.1054 184.349 70.1054 184.349C70.1054 184.349 70.3854 184.613 70.7191 184.223C71.0338 183.857 70.7791 183.472 70.7791 183.472C70.7791 183.472 71.2117 183.654 71.5254 183.153C71.6222 182.997 71.6527 182.863 71.6485 182.75C71.6485 182.749 71.6485 182.749 71.6496 182.748L71.6485 182.744C71.6359 182.705 71.6212 182.666 71.6054 182.628C71.6001 182.615 71.5949 182.602 71.5896 182.59C71.558 182.513 71.5191 182.439 71.478 182.367C71.4538 182.327 71.4285 182.287 71.4033 182.248C71.3675 182.386 71.2927 182.521 71.217 182.636C71.1306 182.767 71.0222 182.897 70.8706 182.951C70.7117 183.009 70.5401 182.968 70.3791 183.009C70.2106 183.054 70.0938 183.215 70.0517 183.378C70.0149 183.519 70.038 183.662 69.9454 183.785C69.8422 183.922 69.6833 183.997 69.5401 184.082C69.5359 184.081 69.5349 184.082 69.5338 184.083ZM70.5317 178.926C70.5317 178.926 69.8359 179.235 69.7159 179.166C69.597 179.099 69.6496 178.94 69.6496 178.94C69.6496 178.94 70.357 178.753 70.5317 178.926Z" fill="white"/>
<path d="M39.2767 164.606C40.9146 161.017 66.6389 180.042 66.6389 180.042L64.9441 182.611C64.9441 182.611 33.5031 177.256 39.2767 164.606Z" fill="#F18A66"/>
<path d="M113.88 150.398C113.824 149.681 115.257 148.774 115.257 148.774C115.257 148.774 113.059 149.818 112.903 149.022C112.778 148.381 113.993 147.661 114.468 147.406C113.914 147.677 112.309 148.35 112.185 147.12C112.109 146.366 113.914 145.422 113.914 145.422C113.914 145.422 111.648 146.29 111.559 145.433C111.394 143.845 115.271 142.251 115.271 142.251C115.271 142.251 118.574 142.096 117.553 143.475C117.553 143.475 119.068 143.263 118.977 144.275C118.885 145.287 118.355 145.484 118.355 145.484C118.355 145.484 119.338 145.467 119.467 146.121C119.597 146.775 118.813 146.893 118.813 146.893C118.813 146.893 119.849 147.399 119.384 148.229C119.014 148.891 117.666 149.598 117.133 149.859C117.137 149.872 117.139 149.88 117.139 149.88C117.139 149.88 117.053 149.913 116.91 149.965C116.179 150.232 113.926 150.999 113.88 150.398Z" fill="#F18A66"/>
<path opacity="0.2" d="M112.688 144.312L113.037 145.452C113.037 145.452 112.007 145.81 111.765 145.401C111.523 144.992 112.688 144.312 112.688 144.312ZM113.229 146.27C113.229 146.27 113.851 147.121 113.657 147.331C113.462 147.54 112.715 147.739 112.48 147.336C112.244 146.93 113.1 146.261 113.229 146.27ZM113.557 148.281C113.557 148.281 113.995 148.638 113.915 149.012C113.915 149.012 113.288 149.37 113.116 149.032C112.943 148.694 113.557 148.281 113.557 148.281ZM114.392 149.793C114.392 149.793 114.746 150.086 114.635 150.349C114.635 150.349 114.33 150.608 114.071 150.371C113.813 150.135 114.392 149.793 114.392 149.793Z" fill="white"/>
<path d="M67.4231 124.33C67.4231 124.33 67.1494 126.182 67.7925 127.001C68.4357 127.821 69.6199 128.292 69.0809 128.797C68.5431 129.304 69.1999 129.721 69.1999 129.721L69.962 133.09C69.962 133.09 63.4515 136.271 61.6967 135.027C59.942 133.782 58.6336 127.173 60.9315 125.501C63.2304 123.83 67.4231 124.33 67.4231 124.33Z" fill="#F18A66"/>
<path d="M62.2368 134.998L63.14 138.639C63.14 138.639 65.1189 140.814 66.4452 139.751C67.7716 138.688 67.7095 137.749 67.7095 137.749L66.9073 134.513L62.2368 134.998Z" fill="#F18A66"/>
<path opacity="0.1" d="M60.8956 131.859L60.8672 130.365C60.8672 130.365 61.0019 131.722 62.0482 132.122C63.0946 132.523 63.4293 134.404 62.0188 134.881C60.6093 135.36 60.8956 131.859 60.8956 131.859ZM62.763 135.003L66.9398 134.748L67.4082 136.54L64.8282 136.29C63.9767 136.207 63.2125 135.731 62.763 135.003ZM67.2903 125.087L67.3682 125.399L67.4461 126.15L64.903 126.113C64.1114 126.102 63.3503 125.8 62.7661 125.266L62.7503 125.251L67.2903 125.087ZM63.1503 130.234L62.6998 129.027C62.6998 129.027 64.184 130.74 65.5009 130.917C66.8177 131.094 66.6198 129.813 67.5746 129.449C68.5293 129.083 68.9472 129.364 68.9472 129.364L66.9872 132.474L63.1503 130.234Z" fill="#1D1B2C"/>
<path d="M69.9125 130.033C70.2757 130.598 70.5283 131.439 70.6041 132.418C70.7767 134.721 66.4851 135.296 65.3957 135.306C65.3778 135.305 65.3599 135.303 65.343 135.305C64.3483 135.293 62.2651 129.538 61.3999 129.753C60.5357 129.968 60.7494 130.833 61.8062 133.321C62.863 135.808 60.9767 134.848 60.9767 134.848C60.2346 134.613 59.6188 134.243 59.1041 133.777C56.4683 131.391 56.5241 126.52 56.4273 124.638C56.3104 122.395 58.4346 122.525 58.4346 122.525C58.4346 122.525 57.1757 121.74 63.7525 120.068C66.9251 119.262 68.3294 120.097 68.8272 121.303C69.3693 122.591 68.8672 124.304 68.3978 124.858C67.4904 125.929 65.0841 125.535 63.1673 125.35C61.2504 125.166 62.3083 128.097 62.3083 128.097C62.5936 129.509 64.5988 131.267 65.7451 131.608C66.8915 131.948 66.6273 130.729 67.9304 129.636C68.6883 128.999 69.4083 129.252 69.9125 130.033Z" fill="#1D1B2C"/>
<path opacity="0.1" d="M63.7313 128.923C63.6798 129.227 64.0124 129.537 64.4724 129.615C64.9324 129.693 65.3482 129.509 65.3987 129.204C65.4503 128.9 65.1187 128.59 64.6577 128.512C64.1977 128.434 63.7829 128.618 63.7313 128.923Z" fill="#1D1B2C"/>
<path d="M69.0252 132.232C68.4357 132.224 68.0241 131.649 68.0073 131.625C67.9273 131.511 67.9547 131.354 68.0683 131.274C68.182 131.193 68.3389 131.22 68.4199 131.334C68.4989 131.446 68.7683 131.725 69.0462 131.727C69.2494 131.723 69.4546 131.563 69.6557 131.252C69.7315 131.135 69.8873 131.1 70.0041 131.177C70.121 131.253 70.1546 131.409 70.0789 131.527C69.781 131.988 69.4357 132.225 69.0536 132.233C69.0452 132.232 69.0357 132.232 69.0252 132.232Z" fill="white"/>
<path d="M66.2052 127.212C66.2052 127.521 65.9936 127.769 65.7336 127.769C65.4736 127.769 65.262 127.521 65.262 127.212C65.262 126.903 65.4736 126.654 65.7336 126.654C65.8062 126.654 65.8757 126.673 65.9367 126.709C65.8452 126.737 65.7757 126.836 65.7757 126.955C65.7757 127.094 65.8715 127.208 65.9904 127.208C66.0767 127.208 66.1525 127.146 66.1852 127.058C66.1978 127.107 66.2052 127.158 66.2052 127.212ZM66.7094 126.162C66.7094 126.162 64.2757 126.039 64.0315 125.799C63.7862 125.559 64.5483 125.053 65.621 125.325C66.6936 125.596 66.9873 126.153 66.7094 126.162Z" fill="#1D1B2C"/>
<path d="M254.417 147.796L137.369 173.355V143.712L254.417 118.153V147.796Z" fill="#1D1B2C"/>
<path d="M254.417 127.792L137.369 153.352V123.709L254.417 98.149V127.792Z" fill="#1D1B2C"/>
<path d="M160.459 141.513L159.599 137.632L153.424 139.002L150.676 126.603L145.746 127.696L149.354 143.976L160.459 141.513ZM167.155 140.028L163.547 123.748L158.617 124.842L162.225 141.122L167.155 140.028ZM189.111 135.159L185.503 118.879L178.986 120.324L177.742 129.614L172.762 121.704L166.173 123.166L169.78 139.446L174.71 138.352L172.542 128.565L178.347 137.546L180.544 137.059L182.085 126.448L184.254 136.236L189.111 135.159ZM196.686 133.479L193.079 117.198L188.148 118.292L191.756 134.572L196.686 133.479ZM208.353 117.882L207.493 114.002L194.825 116.811L195.691 120.716L199.566 119.831L202.314 132.23L207.244 131.137L204.496 118.738L208.358 117.907L208.353 117.882ZM225.224 127.149L224.358 123.244L216.939 124.89L216.381 122.376L223.636 120.792L222.824 117.131L215.575 118.739L215.056 116.396L222.481 114.775L221.616 110.869L209.266 113.608L212.874 129.888L225.224 127.149ZM241.818 114.942C241.53 113.64 241.046 112.535 240.367 111.627C239.687 110.719 238.872 110.004 237.919 109.481C236.983 108.955 235.93 108.633 234.761 108.517C233.591 108.401 232.364 108.485 231.079 108.771L223.805 110.384L227.413 126.664L234.711 125.045C235.98 124.764 237.12 124.323 238.131 123.723C239.142 123.124 239.962 122.395 240.591 121.539C241.234 120.662 241.663 119.671 241.878 118.564C242.11 117.455 242.082 116.249 241.794 114.947L241.818 114.942ZM236.771 116.087C236.897 116.656 236.927 117.213 236.86 117.757C236.793 118.301 236.631 118.806 236.376 119.273C236.137 119.735 235.799 120.135 235.361 120.471C234.94 120.803 234.42 121.038 233.802 121.175L231.459 121.695L229.571 113.176L231.944 112.676C232.595 112.531 233.19 112.519 233.728 112.639C234.263 112.742 234.737 112.953 235.149 113.271C235.557 113.573 235.892 113.968 236.154 114.457C236.432 114.941 236.638 115.484 236.771 116.087Z" fill="#FBA31C"/>
<path d="M177.997 151.631C177.719 150.378 177.235 149.273 176.545 148.317C175.855 147.36 175.027 146.588 174.06 146C173.093 145.412 172.018 145.027 170.834 144.846C169.663 144.645 168.451 144.683 167.198 144.961C165.929 145.242 164.798 145.724 163.805 146.405C162.825 147.066 162.021 147.868 161.393 148.809C160.765 149.751 160.341 150.801 160.119 151.96C159.898 153.118 159.926 154.324 160.204 155.577C160.482 156.83 160.965 157.935 161.655 158.891C162.342 159.832 163.168 160.596 164.135 161.184C165.102 161.772 166.171 162.166 167.342 162.368C168.526 162.549 169.753 162.499 171.022 162.217C172.275 161.939 173.391 161.47 174.371 160.809C175.364 160.127 176.174 159.316 176.802 158.375C177.43 157.433 177.856 156.391 178.081 155.248C178.302 154.09 178.274 152.884 177.997 151.631ZM172.993 152.741C173.13 153.359 173.18 153.971 173.144 154.577C173.104 155.166 172.968 155.708 172.736 156.203C172.521 156.695 172.198 157.125 171.768 157.494C171.333 157.846 170.791 158.094 170.14 158.239C169.473 158.387 168.868 158.393 168.326 158.257C167.78 158.105 167.298 157.853 166.879 157.503C166.459 157.152 166.107 156.718 165.822 156.2C165.549 155.663 165.344 155.086 165.207 154.467C165.07 153.849 165.014 153.247 165.038 152.661C165.074 152.056 165.208 151.505 165.44 151.01C165.668 150.499 165.999 150.067 166.433 149.714C166.863 149.346 167.412 149.087 168.079 148.939C168.73 148.795 169.329 148.799 169.874 148.951C170.417 149.087 170.891 149.34 171.298 149.711C171.717 150.062 172.071 150.504 172.36 151.037C172.645 151.555 172.856 152.122 172.993 152.741ZM191.591 144.135L190.731 140.254L178.381 142.993L181.988 159.273L186.919 158.179L185.496 151.76L192.75 150.177L191.939 146.516L184.69 148.123L184.171 145.78L191.596 144.159L191.591 144.135ZM206.035 140.931L205.175 137.05L192.825 139.789L196.432 156.069L201.363 154.976L199.94 148.557L207.194 146.973L206.383 143.312L199.134 144.92L198.615 142.577L206.04 140.956L206.035 140.931ZM223.226 150.127L222.361 146.222L214.941 147.867L214.384 145.353L221.638 143.77L220.827 140.109L213.578 141.716L213.059 139.373L220.484 137.752L219.619 133.847L207.269 136.586L210.876 152.866L223.226 150.127ZM239.987 146.41L235.283 140.667C235.398 140.573 235.607 140.399 235.909 140.144C236.224 139.869 236.527 139.503 236.818 139.046C237.11 138.589 237.339 138.043 237.505 137.408C237.668 136.758 237.658 136.017 237.474 135.187C237.323 134.504 237.048 133.882 236.651 133.321C236.253 132.761 235.752 132.309 235.147 131.965C234.541 131.621 233.844 131.4 233.054 131.302C232.277 131.185 231.424 131.228 230.497 131.434L221.808 133.361L225.416 149.641L230.346 148.548L229.059 142.739L230.626 142.417L234.373 147.655L239.987 146.41ZM232.514 136.492C232.626 136.997 232.563 137.446 232.326 137.84C232.089 138.234 231.775 138.474 231.385 138.561L228.285 139.248L227.528 135.831L230.627 135.144C231.034 135.054 231.422 135.147 231.791 135.424C232.172 135.681 232.413 136.037 232.514 136.492Z" fill="white"/>
<path d="M288.854 266.949L252.002 265.651L257.141 214.723L288.982 215.845L288.854 266.949Z" fill="#FCBF44"/>
<path d="M288.982 215.845L290.471 216.906L291.487 215.933L296.017 259.508L292.544 261.492L288.854 266.949L288.982 215.845Z" fill="#FBA31C"/>
<path opacity="0.2" d="M288.982 215.845L292.544 261.492L288.854 266.949L288.982 215.845Z" fill="black"/>
<path d="M263.314 223.78C263.281 224.411 262.693 224.903 262 224.879C261.307 224.854 260.772 224.322 260.804 223.691C260.837 223.06 261.425 222.568 262.118 222.593C262.81 222.617 263.346 223.149 263.314 223.78ZM282.307 223.996C282.275 224.627 281.686 225.119 280.994 225.095C280.301 225.07 279.765 224.538 279.798 223.907C279.83 223.276 280.419 222.784 281.111 222.809C281.804 222.833 282.34 223.365 282.307 223.996Z" fill="black"/>
<path d="M261.755 223.889C261.255 228.007 262.967 232.246 266.266 235.087C267.707 236.329 270.178 238.185 272.147 236.792C273.077 236.134 273.799 235.106 274.459 234.235C275.154 233.317 275.72 232.344 276.041 231.266C276.458 229.866 276.525 228.363 277.479 227.142C278.413 225.947 279.873 225.169 281.236 224.443C281.552 224.274 281.461 223.49 281.12 223.671C279.9 224.322 278.661 224.987 277.682 225.931C276.727 226.852 276.241 227.95 275.943 229.169C275.577 230.667 275.267 232.007 274.334 233.317C273.571 234.387 272.363 236.356 270.83 236.511C269.328 236.663 267.702 235.354 266.682 234.492C265.685 233.649 264.834 232.674 264.147 231.604C262.656 229.282 262.002 226.59 262.327 223.908C262.386 223.422 261.813 223.409 261.755 223.889Z" fill="white"/>
<path d="M294.866 270.906L263.333 268.407L269.649 224.956L296.895 227.115L294.866 270.906Z" fill="#385877"/>
<path d="M296.895 227.115L298.133 228.08L299.039 227.285L301.284 264.799L298.234 266.369L294.866 270.906L296.895 227.115Z" fill="#1D1B2C"/>
<path opacity="0.2" d="M296.895 227.115L298.234 266.369L294.866 270.906L296.895 227.115Z" fill="black"/>
<path d="M274.599 232.949C274.547 233.489 274.025 233.888 273.431 233.842C272.839 233.794 272.4 233.319 272.451 232.78C272.503 232.24 273.025 231.841 273.619 231.888C274.212 231.934 274.65 232.409 274.599 232.949ZM290.868 233.849C290.817 234.389 290.295 234.788 289.701 234.741C289.108 234.694 288.669 234.219 288.721 233.68C288.772 233.14 289.295 232.741 289.888 232.787C290.481 232.834 290.92 233.31 290.868 233.849Z" fill="black"/>
<path d="M273.065 233.493C272.494 237.004 273.813 240.698 276.542 243.248C277.735 244.363 279.787 246.04 281.524 244.914C282.343 244.382 282.999 243.527 283.595 242.803C284.222 242.041 284.741 241.226 285.054 240.313C285.46 239.128 285.569 237.842 286.429 236.828C287.271 235.837 288.55 235.222 289.743 234.646C290.019 234.512 289.969 233.837 289.67 233.981C288.602 234.496 287.517 235.023 286.645 235.798C285.796 236.555 285.34 237.477 285.042 238.513C284.677 239.784 284.364 240.922 283.518 242.013C282.827 242.902 281.723 244.548 280.404 244.629C279.111 244.707 277.763 243.528 276.919 242.753C276.094 241.997 275.398 241.13 274.846 240.19C273.648 238.147 273.182 235.817 273.554 233.531C273.622 233.114 273.131 233.083 273.065 233.493Z" fill="white"/>
<path d="M311.968 127.787C311.968 127.787 295.709 118.605 302.561 109.414C302.561 109.414 297.965 99.88 306.363 96.454C314.761 93.0291 316.278 99.0783 316.278 99.0783C316.278 99.0783 334.904 87.1053 334.794 111.372C334.794 111.372 333.909 118.306 343.907 112.684C353.906 107.063 352.817 142 334.368 141.35C315.921 140.701 311.968 127.787 311.968 127.787Z" fill="#1D1B2C"/>
<path d="M287.063 103.516C287.113 103.183 287.18 102.853 287.272 102.548L287.271 102.547C287.271 102.546 287.271 102.546 287.271 102.545C287.274 102.53 287.289 102.448 287.314 102.331L287.315 102.33C287.335 102.237 287.362 102.123 287.395 102.003C287.395 102.003 287.678 100.622 288.095 100.542C288.51 100.46 288.657 100.745 288.657 100.745C288.657 100.745 288.877 100.397 289.271 100.484C289.664 100.569 289.719 100.86 289.719 100.86C289.719 100.86 289.913 100.534 290.36 100.63C290.807 100.726 290.925 101.126 290.925 101.126C290.925 101.126 291.249 100.653 291.737 101.167C292.222 101.679 291.833 102.641 291.821 102.684C291.778 102.867 291.726 103.042 291.671 103.207C291.655 103.252 291.647 103.301 291.623 103.342C289.902 106.296 289.68 111.958 289.121 112.196C289.121 112.196 286.314 112.3 286.156 111.621C286.241 110.98 287.545 105.473 287.545 105.473C287.545 105.473 286.878 104.763 287.063 103.516Z" fill="#F18A66"/>
<path opacity="0.2" d="M287.271 102.548L287.27 102.547C287.27 102.546 287.27 102.546 287.27 102.545C287.274 102.53 287.289 102.448 287.314 102.331L287.315 102.33C287.335 102.237 287.362 102.123 287.395 102.003C287.395 102.003 287.678 100.622 288.095 100.542C288.51 100.46 288.657 100.745 288.657 100.745C288.657 100.745 288.877 100.397 289.27 100.484C289.664 100.569 289.719 100.86 289.719 100.86C289.719 100.86 289.912 100.534 290.36 100.63C290.807 100.726 290.925 101.126 290.925 101.126C290.925 101.126 291.249 100.653 291.737 101.167C291.911 101.352 291.971 101.594 291.978 101.83C291.807 101.625 291.563 101.449 291.303 101.402C291.237 101.391 291.167 101.388 291.1 101.4C291.023 101.415 290.954 101.451 290.879 101.472C290.718 101.518 290.583 101.416 290.449 101.337C290.277 101.235 290.098 101.153 289.892 101.157C289.739 101.16 289.592 101.208 289.445 101.246C289.29 101.285 289.132 101.301 288.979 101.245C288.832 101.192 288.698 101.136 288.539 101.139C288.264 101.143 288.05 101.32 287.906 101.541C287.807 101.694 287.743 101.866 287.675 102.034C287.586 102.254 287.503 102.475 287.419 102.696C287.276 103.075 287.129 103.448 287.032 103.841C287.037 103.737 287.044 103.63 287.061 103.517C287.112 103.183 287.181 102.852 287.271 102.548Z" fill="white"/>
<path opacity="0.1" d="M290.947 104.528C290.947 104.528 291.391 103.569 290.936 103.357C290.48 103.144 290.266 104.153 289.067 103.958C287.408 103.688 287.857 102.38 287.767 102.206C287.677 102.032 287.844 101.649 287.844 101.649C287.844 101.649 287.922 102.061 288.254 102.143C288.585 102.225 289.616 102.295 290.124 102.556C290.583 101.917 291.864 101.751 291.925 102.208C291.986 102.665 291.344 104.418 290.947 104.528Z" fill="#231F20"/>
<path d="M288.213 102.127C288.133 102.097 288.055 102.066 287.976 102.033C288.055 102.051 288.133 102.07 288.212 102.089C288.241 101.874 288.291 101.66 288.359 101.443C288.429 101.221 288.522 100.998 288.646 100.782C288.538 101.001 288.463 101.222 288.41 101.439C288.359 101.656 288.326 101.872 288.317 102.078V102.08C288.317 102.09 288.311 102.101 288.304 102.11C288.424 102.14 288.544 102.169 288.664 102.198C288.811 102.23 288.958 102.264 289.104 102.297C289.15 102.085 289.218 101.874 289.302 101.663C289.394 101.435 289.51 101.206 289.659 100.988C289.526 101.211 289.429 101.437 289.357 101.662C289.285 101.884 289.235 102.106 289.208 102.319C289.256 102.329 289.303 102.34 289.351 102.349C289.581 102.398 289.812 102.438 290.044 102.473C290.096 102.481 290.148 102.485 290.201 102.492C290.269 102.271 290.36 102.054 290.471 101.839C290.584 101.62 290.721 101.406 290.889 101.202C290.737 101.411 290.619 101.627 290.526 101.843C290.433 102.058 290.361 102.277 290.316 102.486V102.489C290.315 102.494 290.311 102.499 290.308 102.504C290.337 102.507 290.365 102.512 290.393 102.515C290.51 102.529 290.627 102.535 290.746 102.535C290.511 102.575 290.272 102.568 290.036 102.551C289.799 102.534 289.564 102.496 289.331 102.45C289.099 102.402 288.869 102.343 288.643 102.274L288.306 102.163C288.288 102.156 288.271 102.149 288.253 102.143C288.236 102.145 288.221 102.14 288.213 102.127Z" fill="#D16F52"/>
<path d="M290.099 102.611C290.262 102.344 291.805 102.186 291.805 102.186C292.331 102.402 292.375 103.948 292.236 104.173C291.74 105.179 291.003 105.745 290.649 105.715C290.723 105.161 290.995 104.436 291.248 103.778C291.225 103.504 291.143 103.126 290.864 103.12C290.425 103.109 289.936 102.877 290.099 102.611Z" fill="#D16F52"/>
<path opacity="0.2" d="M291.907 103.411C291.772 103.251 291.894 102.598 291.688 102.552C290.682 102.325 290.997 102.821 290.422 102.976C290.396 102.984 290.373 102.998 290.346 103.006C290.134 102.911 290.004 102.767 290.1 102.61C290.263 102.343 291.806 102.185 291.806 102.185C292.303 102.389 292.369 103.778 292.258 104.121C292.272 103.758 292.143 103.689 291.907 103.411Z" fill="white"/>
<path opacity="0.2" d="M290.592 102.454C290.592 102.454 290.184 102.492 290.114 102.64C290.043 102.79 290.256 102.771 290.388 102.735C290.521 102.7 290.621 102.64 290.621 102.64L290.592 102.454Z" fill="white"/>
<path opacity="0.1" d="M287.701 105.572C287.953 105.909 288.619 106.048 289.241 106.114C289.714 106.163 290.149 105.99 290.479 105.791C290.426 105.861 290.37 105.928 290.309 105.992C290.15 106.16 289.498 106.921 288.891 106.801C287.945 106.615 287.855 105.749 287.697 105.611C287.698 105.598 287.699 105.585 287.701 105.572Z" fill="#231F20"/>
<path d="M306.512 117.508C301.091 117.66 290.859 126.816 290.859 126.816L290.479 107.035C290.479 107.035 288.405 107.385 287.155 106.334C287.155 106.334 275.426 124.634 284.307 136.098C293.188 147.562 303.202 137.008 303.202 137.008L306.512 117.508Z" fill="#FBA31C"/>
<path opacity="0.1" d="M303.411 121.331C303.411 121.331 296.496 127.574 295.232 130.343C294.147 132.724 294.141 139.489 301.571 138.67C309.003 137.85 303.411 121.331 303.411 121.331Z" fill="#0B1244"/>
<path d="M332.698 205.665C332.698 205.665 335.587 204.946 335.644 205.712C335.701 206.478 335.691 207.322 335.691 207.322C335.691 207.322 338.245 216.003 336.661 215.708C335.077 215.413 332.608 210.868 332.275 209.248C331.941 207.628 331.418 206.418 332.698 205.665Z" fill="#1D1B2C"/>
<path d="M331.999 209.017C331.999 209.017 334.156 212.09 335.518 213.787C336.879 215.485 335.614 208.13 334.694 206.625C333.774 205.119 332.479 205.505 332.137 206.281C331.795 207.057 331.999 209.017 331.999 209.017Z" fill="#1F4168"/>
<path d="M332.777 209.409C332.777 209.409 334.901 213.022 335.1 212.162C335.299 211.302 334.45 207.012 333.069 206.699C331.689 206.387 332.777 209.409 332.777 209.409Z" fill="#E58598"/>
<path d="M332.71 209.26C332.71 209.26 309.445 212.925 299.284 205.217C295.306 202.2 300.989 173.919 307.067 170.864C307.183 170.796 307.301 170.746 307.411 170.706C311.951 169.147 312.742 170.294 321.613 172.661C321.803 172.842 321.965 173.071 322.103 173.329C322.82 174.671 322.746 176.947 322.241 179.613C322.189 179.912 322.129 180.213 322.061 180.524C320.369 188.385 315.511 198.932 315.829 199.426C315.839 199.433 315.839 199.433 315.849 199.441C317.225 199.653 331.941 205.837 333.106 206.714C334.273 207.6 332.71 209.26 332.71 209.26Z" fill="#F18A66"/>
<path opacity="0.25" d="M322.241 179.612C322.189 179.911 322.129 180.212 322.061 180.523C320.369 188.384 315.512 198.931 315.829 199.425C313.37 197.632 303.306 195.813 300.378 195.616C297.094 195.409 302.832 173.387 307.066 170.863C307.182 170.795 307.3 170.745 307.41 170.705C311.95 169.146 312.741 170.293 321.612 172.66C321.802 172.841 321.964 173.07 322.102 173.328C322.792 174.656 322.726 176.93 322.241 179.612ZM333.104 206.714C332.141 205.985 321.08 201.327 316.806 199.728C316.498 202.024 319.092 204.696 319.743 207.202C320.034 208.319 320.513 209.269 321.107 210.125C327.593 210.064 332.712 209.258 332.712 209.258C332.712 209.258 334.273 207.603 333.104 206.714Z" fill="#0B1244"/>
<path d="M354.617 200.665C354.617 200.665 355.197 197.743 355.914 198.017C356.63 198.29 357.389 198.659 357.389 198.659C357.389 198.659 366.326 200.038 365.385 201.349C364.444 202.658 359.284 202.962 357.678 202.574C356.07 202.186 354.755 202.145 354.617 200.665Z" fill="#1D1B2C"/>
<path d="M357.352 202.725C357.352 202.725 361.047 202.078 363.162 201.567C365.276 201.056 358.087 199.073 356.335 199.266C354.582 199.459 354.38 200.796 354.936 201.435C355.492 202.076 357.352 202.725 357.352 202.725Z" fill="#1F4168"/>
<path d="M358.038 202.186C358.038 202.186 362.208 201.799 361.516 201.253C360.823 200.707 356.583 199.651 355.713 200.768C354.841 201.886 358.038 202.186 358.038 202.186Z" fill="#FF97A6"/>
<path d="M357.04 200.275C355.792 199.523 334.175 197.751 332.786 197.685C332.006 197.647 335.101 187.265 330.384 183.668C329.58 188.967 308.857 179.489 311.193 184.318C315.395 193.004 318.548 204.661 322.733 207.561C329.402 212.184 359.899 201.948 359.899 201.948C359.899 201.948 358.296 201.036 357.04 200.275Z" fill="#F18A66"/>
<path d="M324.456 153.836C324.456 153.836 343.195 166.514 349.128 177.623C349.128 177.623 343.312 181.895 344.777 186.475C346.242 191.057 324.456 153.836 324.456 153.836ZM301.422 154.767C301.422 154.767 301.157 176.852 284.953 180.711C284.953 180.711 293.507 184.722 291.715 188.558C289.923 192.395 309.818 166.712 301.422 154.767Z" fill="#5E3E13"/>
<path d="M348.246 186.888C348.246 186.888 344.16 188.523 338.738 190.35C332.388 192.496 324.215 194.904 318.662 195.246C311.329 195.693 287.989 196.744 285.723 187.819C285.766 187.813 285.791 187.792 285.824 187.78C287.193 187.211 302.512 180.975 301.363 152.092C301.363 152.092 304.698 152.132 308.746 152.2C314.603 152.309 321.959 152.482 322.941 152.742C324.592 153.16 337.751 166.789 348.246 186.888Z" fill="#775124"/>
<path opacity="0.25" d="M331.196 171.662C326.429 166.44 328.645 156.862 323.105 158.303C317.565 159.744 302.813 155.493 302.813 155.493C302.813 155.493 305.225 154.03 308.746 152.199C314.603 152.308 321.959 152.481 322.941 152.741C324.59 153.16 337.749 166.788 348.245 186.887C348.245 186.887 344.159 188.522 338.737 190.349C339.207 189.127 340.28 187.679 341.865 186.282C347.348 181.427 335.952 176.876 331.196 171.662Z" fill="#0B1244"/>
<path d="M321.301 118.056C317.002 114.652 307.248 116.844 305.043 117.732C304.911 117.772 298.879 129.366 298.839 129.402C295.147 132.654 297.499 138.217 300.088 138.756C300.958 146.199 301.512 151.88 301.208 154.58C300.734 158.797 324.06 159.564 327.79 154.058C333.001 146.37 328.467 123.73 321.301 118.056Z" fill="#FBA31C"/>
<path d="M309.137 117.917C309.137 117.917 314.758 117.001 317.423 117.418C317.423 117.418 317.007 123.751 313.913 126.136C310.818 128.521 307.894 120.763 309.137 117.917Z" fill="#F18A66"/>
<path opacity="0.18" d="M312.886 122.878L312.68 126.58L313.157 126.523L312.886 122.878Z" fill="#000107"/>
<path opacity="0.1" d="M305.548 136.037C305.548 136.037 308.466 138.282 312.029 134.822C312.029 134.822 316.675 137.23 319.933 134.657C319.933 134.657 316.142 139.637 311.974 136.007C311.974 136.005 309.095 139.969 305.548 136.037Z" fill="#000107"/>
<path opacity="0.1" d="M285.828 187.783C287.195 187.213 302.516 180.977 301.361 152.094C301.361 152.094 308.674 179.833 285.828 187.783Z" fill="white"/>
<path d="M306.349 99.5282C304.148 101.265 306.685 105.884 304.281 106.335C301.676 106.384 302.801 109.632 305.003 111.056C306.073 111.769 308.539 112.246 309.649 112.861C311.437 114.038 314.741 114.644 317.228 114.218C319.735 113.872 321.426 112.493 320.435 111.525C318.394 109.139 324.328 107.344 322.287 104.804C320.642 102.562 315.369 92.4108 306.349 99.5282Z" fill="#1D1B2C"/>
<path d="M314.591 111.04L315.298 118.06C315.298 118.06 313.117 121.305 310.936 118.886L310.995 114.167L314.591 111.04Z" fill="#F18A66"/>
<path opacity="0.15" d="M312.805 118.976C312.336 118.177 312.157 116.964 312.883 116.252C313.177 115.965 313.56 115.786 313.843 115.487C314.196 115.114 314.259 114.55 314.207 114.06C314.123 113.262 313.784 112.484 313.84 111.692L310.996 114.164L310.937 118.884C311.788 119.829 312.64 119.908 313.361 119.655C313.147 119.462 312.958 119.237 312.805 118.976Z" fill="#33133F"/>
<path d="M305.297 103.823C305.297 103.823 304.904 115.11 309.383 115.464C313.863 115.818 315.827 111.099 315.827 111.099C315.827 111.099 316.653 111.61 316.849 110.784C317.046 109.958 318.028 108.503 317.046 107.952C316.064 107.401 315.749 108.306 315.749 108.306L316.3 105.749C316.3 105.75 305.415 100.127 305.297 103.823Z" fill="#F18A66"/>
<path opacity="0.05" d="M316.185 108.462C316.185 108.462 316.775 108.144 317.01 108.604C317.246 109.064 316.727 110.824 316.032 110.611C316.032 110.611 316.928 110.221 316.822 109.148C316.716 108.072 316.338 108.804 316.185 108.462ZM313.468 111.185C313.521 111.498 313.18 111.817 312.706 111.897C312.233 111.977 311.806 111.788 311.754 111.475C311.701 111.162 312.042 110.843 312.516 110.763C312.988 110.683 313.416 110.872 313.468 111.185ZM308.104 111.215C308.157 111.528 307.816 111.847 307.342 111.927C306.868 112.007 306.442 111.817 306.389 111.504C306.337 111.191 306.678 110.872 307.151 110.792C307.625 110.712 308.052 110.902 308.104 111.215Z" fill="#33133F"/>
<path d="M308.332 108.27C308.286 108.27 308.241 108.246 308.217 108.204C308.196 108.167 307.683 107.32 306.427 107.877C306.36 107.907 306.282 107.876 306.253 107.81C306.223 107.743 306.253 107.664 306.32 107.635C307.799 106.979 308.44 108.061 308.446 108.072C308.482 108.135 308.46 108.216 308.397 108.253C308.376 108.264 308.354 108.27 308.332 108.27ZM310.899 108.293C310.882 108.293 310.866 108.29 310.85 108.284C310.782 108.256 310.75 108.181 310.776 108.112C310.78 108.101 311.262 106.944 313.002 107.318C313.074 107.334 313.119 107.403 313.104 107.475C313.089 107.546 313.019 107.593 312.947 107.577C311.434 107.253 311.038 108.172 311.022 108.211C311.001 108.262 310.952 108.293 310.899 108.293ZM309.392 111.639C309.345 111.639 309.301 111.633 309.257 111.62C308.976 111.538 308.858 111.222 308.853 111.208C308.838 111.169 308.843 111.125 308.866 111.09C309.34 110.363 309.215 109.375 309.214 109.366C309.204 109.293 309.255 109.227 309.327 109.217C309.399 109.206 309.466 109.258 309.476 109.331C309.481 109.374 309.608 110.372 309.127 111.173C309.165 111.242 309.237 111.339 309.332 111.366C309.421 111.393 309.53 111.357 309.655 111.261C309.713 111.217 309.796 111.227 309.84 111.285C309.884 111.343 309.874 111.426 309.816 111.471C309.67 111.583 309.527 111.639 309.392 111.639Z" fill="#1D1B2C"/>
<path d="M308.54 112.972C308.54 112.972 310.05 113.657 311.741 112.869C312.125 113.572 310.121 115.403 308.54 112.972Z" fill="#FCFAF7"/>
<path d="M307.93 109.369C307.93 109.782 307.701 110.116 307.419 110.116C307.137 110.116 306.908 109.781 306.908 109.369C306.908 108.956 307.137 108.622 307.419 108.622C307.701 108.621 307.93 108.956 307.93 109.369ZM312.527 109.369C312.527 109.782 312.299 110.116 312.017 110.116C311.735 110.116 311.506 109.781 311.506 109.369C311.506 108.956 311.735 108.622 312.017 108.622C312.299 108.621 312.527 108.956 312.527 109.369Z" fill="#1D1B2C"/>
<path opacity="0.05" d="M310.499 114.848C310.359 114.848 310.268 114.827 310.259 114.825C310.223 114.817 310.201 114.781 310.209 114.745C310.218 114.709 310.254 114.688 310.289 114.695C310.295 114.696 310.876 114.826 311.403 114.369C311.431 114.346 311.472 114.349 311.497 114.375C311.521 114.403 311.518 114.445 311.49 114.469C311.122 114.787 310.738 114.848 310.499 114.848Z" fill="#33133F"/>
<path d="M307.337 101.97C307.364 101.496 307.34 101.188 307.34 101.188C302.683 101.6 304.923 106.438 304.923 106.438C306.54 105.629 307.087 103.919 307.266 102.669C308.518 104.383 312.435 106.435 316.811 106.523L317.36 105.553L307.337 101.97Z" fill="#1D1B2C"/>
<path d="M319.915 132.154C318.504 129.671 315.821 128.029 312.833 127.81C311.526 127.714 309.4 127.701 308.881 129.281C308.637 130.026 308.658 130.891 308.649 131.644C308.641 132.436 308.726 133.207 308.991 133.935C309.334 134.88 309.912 135.74 309.884 136.806C309.857 137.85 309.367 138.879 308.912 139.84C308.806 140.063 309.177 140.46 309.292 140.218C309.7 139.358 310.114 138.482 310.268 137.557C310.419 136.657 310.239 135.85 309.904 135.053C309.494 134.074 309.115 133.205 309.095 132.098C309.078 131.194 308.94 129.609 309.724 128.894C310.493 128.194 311.929 128.252 312.846 128.31C313.743 128.367 314.614 128.557 315.432 128.867C317.208 129.539 318.673 130.761 319.591 132.377C319.758 132.672 320.08 132.444 319.915 132.154Z" fill="#1D1B2C"/>
<path d="M340.233 154.808L318.898 168.583L301.784 137.782L320.218 125.879L340.233 154.808Z" fill="#1D1B2C"/>
<path d="M320.218 125.879L321.477 125.892L321.668 124.943L341.356 147.783L340.174 150.271L340.233 154.808L320.218 125.879Z" fill="#1F4168"/>
<path opacity="0.2" d="M320.218 125.879L340.174 150.271L340.233 154.808L320.218 125.879Z" fill="black"/>
<path d="M308.831 140.468C309.061 140.838 308.922 141.347 308.521 141.606C308.12 141.865 307.608 141.776 307.379 141.406C307.149 141.036 307.288 140.527 307.689 140.268C308.09 140.01 308.602 140.099 308.831 140.468ZM319.649 133.113C319.879 133.482 319.74 133.991 319.339 134.25C318.938 134.51 318.426 134.42 318.197 134.05C317.967 133.68 318.106 133.172 318.507 132.912C318.908 132.654 319.42 132.744 319.649 133.113Z" fill="black"/>
<path d="M318.799 133.006C317.389 130.523 314.705 128.882 311.717 128.663C310.41 128.567 308.284 128.553 307.765 130.133C307.521 130.878 307.542 131.743 307.534 132.496C307.525 133.289 307.61 134.06 307.875 134.788C308.218 135.733 308.796 136.592 308.768 137.658C308.741 138.702 308.251 139.732 307.796 140.693C307.69 140.915 308.061 141.312 308.176 141.072C308.584 140.211 308.997 139.336 309.151 138.411C309.302 137.51 309.122 136.703 308.787 135.907C308.377 134.928 307.998 134.059 307.978 132.951C307.961 132.048 307.823 130.462 308.607 129.748C309.376 129.047 310.812 129.105 311.729 129.163C312.626 129.22 313.497 129.411 314.315 129.72C316.091 130.392 317.556 131.615 318.474 133.231C318.641 133.525 318.963 133.296 318.799 133.006Z" fill="#1D1B2C"/>
<path opacity="0.1" d="M303.937 137.82C303.937 137.82 318.393 126.311 320.263 128.624C322.135 130.937 340.01 152.718 336.095 154.668C332.178 156.617 326.493 154.539 324.281 146.324C322.069 138.109 305.375 149.68 303.937 137.82Z" fill="white"/>
<path d="M317.107 133.429C316.392 131.086 314.453 129.208 311.992 128.465C310.916 128.14 309.138 127.729 308.408 128.955C308.064 129.533 307.92 130.261 307.773 130.889C307.617 131.55 307.544 132.212 307.629 132.87C307.739 133.726 308.063 134.554 307.84 135.442C307.622 136.311 307.02 137.081 306.458 137.8C306.327 137.966 306.564 138.369 306.705 138.188C307.208 137.545 307.718 136.888 308.02 136.144C308.315 135.418 308.315 134.709 308.183 133.979C308.022 133.082 307.868 132.285 308.059 131.353C308.215 130.594 308.396 129.24 309.185 128.789C309.96 128.347 311.152 128.664 311.908 128.885C312.648 129.101 313.342 129.423 313.968 129.836C315.329 130.732 316.327 132.03 316.793 133.555C316.879 133.832 317.191 133.702 317.107 133.429Z" fill="#1D1B2C"/>
<path d="M329.876 156.202L309.437 163.734L300.876 134.74L318.536 128.233L329.876 156.202Z" fill="#1F4168"/>
<path d="M318.536 128.233L319.587 128.479L319.925 127.721L332.13 150.531L330.675 152.393L329.876 156.202L318.536 128.233Z" fill="#1D1B2C"/>
<path opacity="0.2" d="M318.536 128.233L330.675 152.393L329.876 156.202L318.536 128.233Z" fill="black"/>
<path d="M306.273 138.311C306.396 138.662 306.184 139.064 305.8 139.205C305.416 139.346 305.004 139.175 304.881 138.824C304.758 138.472 304.969 138.07 305.354 137.929C305.739 137.788 306.15 137.959 306.273 138.311ZM316.706 134.182C316.829 134.534 316.618 134.935 316.234 135.076C315.849 135.217 315.438 135.047 315.315 134.695C315.192 134.343 315.403 133.942 315.787 133.801C316.172 133.658 316.583 133.829 316.706 134.182Z" fill="black"/>
<path d="M316.013 133.933C315.297 131.59 313.358 129.713 310.897 128.969C309.821 128.645 308.043 128.234 307.314 129.459C306.969 130.037 306.825 130.765 306.678 131.393C306.522 132.055 306.449 132.716 306.535 133.375C306.644 134.23 306.968 135.058 306.745 135.946C306.527 136.816 305.925 137.586 305.363 138.304C305.234 138.471 305.469 138.872 305.61 138.693C306.114 138.049 306.623 137.393 306.925 136.648C307.22 135.922 307.22 135.213 307.088 134.483C306.927 133.587 306.774 132.789 306.964 131.858C307.12 131.098 307.301 129.745 308.09 129.294C308.865 128.851 310.057 129.168 310.814 129.389C311.554 129.605 312.247 129.928 312.874 130.341C314.235 131.237 315.233 132.534 315.698 134.06C315.784 134.337 316.097 134.206 316.013 133.933Z" fill="#1D1B2C"/>
<path opacity="0.1" d="M302.67 135.176C302.67 135.176 316.925 128.252 318.059 130.539C319.193 132.826 330.08 154.411 326.437 155.309C322.794 156.206 318.422 153.4 318.109 146.109C317.796 138.817 301.656 145.374 302.67 135.176Z" fill="white"/>
<path d="M312.461 150.549C312.693 150.416 313.001 150.194 313.422 149.821C313.422 149.821 313.418 149.822 313.412 149.825C313.628 149.647 313.842 149.446 314.044 149.235C314.395 148.871 314.631 148.584 314.786 148.374C314.786 148.372 314.787 148.371 314.788 148.371C315.018 148.06 315.074 147.912 315.074 147.912C315.074 147.912 319.411 145.542 319.852 145.07C320.116 144.425 318.422 142.715 318.422 142.715C317.831 142.584 314.301 145.225 313.324 145.217C312.184 145.208 309.888 143.875 309.874 144.743C309.858 145.613 311.648 145.972 311.648 145.972C311.648 145.972 311.626 145.979 311.587 145.994C311.347 146.083 310.447 146.446 309.774 147.037L309.773 147.038C309.586 147.203 309.417 147.385 309.283 147.586C309.26 147.621 309.237 147.656 309.216 147.692C309.178 147.756 309.144 147.824 309.116 147.892C309.111 147.903 309.106 147.915 309.101 147.926C309.086 147.961 309.074 147.995 309.062 148.03L309.061 148.034C309.061 148.035 309.061 148.035 309.062 148.036C309.059 148.138 309.085 148.258 309.173 148.397C309.454 148.847 309.842 148.683 309.842 148.683C309.842 148.683 309.614 149.029 309.896 149.356C310.196 149.706 310.446 149.47 310.446 149.47C310.446 149.47 310.327 149.901 310.574 150.168C310.834 150.449 311.119 150.17 311.119 150.17C311.119 150.17 310.991 150.463 311.292 150.796C311.563 151.093 312.461 150.549 312.461 150.549Z" fill="#F18A66"/>
<path opacity="0.2" d="M310.959 149.231C310.955 149.246 310.957 149.262 310.971 149.274C311.145 149.425 311.303 149.576 311.359 149.806C311.378 149.883 311.4 149.97 311.471 150.014C311.504 150.034 311.542 150.041 311.579 150.052C311.627 150.067 311.663 150.094 311.7 150.129C311.821 150.241 311.92 150.382 311.999 150.526C312.035 150.592 312.068 150.663 312.098 150.735C311.817 150.857 311.45 150.966 311.294 150.794C310.992 150.462 311.121 150.168 311.121 150.168C311.121 150.168 310.835 150.447 310.575 150.166C310.328 149.899 310.447 149.468 310.447 149.468C310.447 149.468 310.197 149.704 309.897 149.354C309.614 149.026 309.843 148.681 309.843 148.681C309.843 148.681 309.455 148.845 309.174 148.395C309.086 148.255 309.06 148.134 309.063 148.034C309.063 148.033 309.063 148.033 309.062 148.032L309.063 148.028C309.075 147.993 309.087 147.959 309.102 147.924C309.106 147.912 309.111 147.901 309.117 147.889C309.145 147.821 309.18 147.754 309.217 147.689C309.239 147.653 309.261 147.617 309.284 147.582C309.317 147.706 309.383 147.827 309.45 147.93C309.527 148.047 309.625 148.164 309.761 148.212C309.903 148.264 310.057 148.228 310.202 148.264C310.354 148.304 310.458 148.448 310.496 148.595C310.528 148.721 310.507 148.849 310.59 148.959C310.683 149.083 310.825 149.149 310.954 149.226C310.956 149.23 310.958 149.23 310.959 149.231ZM310.064 144.606C310.064 144.606 310.688 144.882 310.796 144.822C310.902 144.761 310.855 144.62 310.855 144.62C310.855 144.62 310.22 144.451 310.064 144.606Z" fill="white"/>
<path d="M339.108 131.741C336.801 127.318 313.554 145.607 313.554 145.607L315.074 147.911C315.074 147.911 344.878 142.796 339.108 131.741Z" fill="#F18A66"/>
<path d="M321.301 118.056C321.301 118.056 343.788 123.347 341.469 133.491C339.15 143.634 317.476 147.912 317.476 147.912L315.298 143.728L327.737 132.76L321.301 118.056Z" fill="#FBA31C"/>
<defs>
<linearGradient id="paint0_linear_62_309" x1="102.542" y1="130.983" x2="114.089" y2="130.983" gradientUnits="userSpaceOnUse">
<stop stop-color="#047C80"/>
<stop offset="1" stop-color="#1C4F76"/>
</linearGradient>
<linearGradient id="paint1_linear_62_309" x1="124.892" y1="130.983" x2="136.439" y2="130.983" gradientUnits="userSpaceOnUse">
<stop stop-color="#047C80"/>
<stop offset="1" stop-color="#1C4F76"/>
</linearGradient>
<linearGradient id="paint2_linear_62_309" x1="147.242" y1="130.983" x2="158.789" y2="130.983" gradientUnits="userSpaceOnUse">
<stop stop-color="#047C80"/>
<stop offset="1" stop-color="#1C4F76"/>
</linearGradient>
<linearGradient id="paint3_linear_62_309" x1="232.067" y1="130.983" x2="243.614" y2="130.983" gradientUnits="userSpaceOnUse">
<stop stop-color="#047C80"/>
<stop offset="1" stop-color="#1C4F76"/>
</linearGradient>
<linearGradient id="paint4_linear_62_309" x1="254.417" y1="130.983" x2="265.964" y2="130.983" gradientUnits="userSpaceOnUse">
<stop stop-color="#047C80"/>
<stop offset="1" stop-color="#1C4F76"/>
</linearGradient>
<linearGradient id="paint5_linear_62_309" x1="276.767" y1="130.983" x2="288.314" y2="130.983" gradientUnits="userSpaceOnUse">
<stop stop-color="#047C80"/>
<stop offset="1" stop-color="#1C4F76"/>
</linearGradient>
<linearGradient id="paint6_linear_62_309" x1="18.0307" y1="258.696" x2="233.217" y2="-122.689" gradientUnits="userSpaceOnUse">
<stop stop-color="#B0B0FF"/>
<stop offset="1" stop-color="white"/>
</linearGradient>
<linearGradient id="paint7_linear_62_309" x1="96.8912" y1="303.191" x2="312.077" y2="-78.1943" gradientUnits="userSpaceOnUse">
<stop stop-color="#B0B0FF"/>
<stop offset="1" stop-color="white"/>
</linearGradient>
<linearGradient id="paint8_linear_62_309" x1="152.832" y1="334.754" x2="368.018" y2="-46.6312" gradientUnits="userSpaceOnUse">
<stop stop-color="#B0B0FF"/>
<stop offset="1" stop-color="white"/>
</linearGradient>
</defs>
</svg>
